<?xml version="1.0" encoding="UTF-8"?>
<!DOCTYPE svg PUBLIC "-//W3C//DTD SVG 1.1//EN" "http://www.w3.org/Graphics/SVG/1.1/DTD/svg11.dtd">
<!-- Creator: CorelDRAW 2021 (64-Bit) -->
<svg xmlns="http://www.w3.org/2000/svg" xml:space="preserve" width="1.48265in" height="2.20055in" version="1.1" style="shape-rendering:geometricPrecision; text-rendering:geometricPrecision; image-rendering:optimizeQuality; fill-rule:evenodd; clip-rule:evenodd"
viewBox="0 0 1170.13 1736.7"
 xmlns:xlink="http://www.w3.org/1999/xlink"
 xmlns:xodm="http://www.corel.com/coreldraw/odm/2003">
 <defs>
  <style type="text/css">
   <![CDATA[
    .str1 {stroke:#FEFEFE;stroke-width:18.46;stroke-miterlimit:2.61313}
    .str2 {stroke:#FEFEFE;stroke-width:7.67;stroke-miterlimit:2.61313}
    .str3 {stroke:#A45E4D;stroke-width:7.67;stroke-miterlimit:2.61313}
    .str4 {stroke:#A45E4D;stroke-width:10.96;stroke-miterlimit:2.61313}
    .str5 {stroke:#A45E4D;stroke-width:5.48;stroke-miterlimit:2.61313}
    .str0 {stroke:#FEFEFE;stroke-width:2.37;stroke-miterlimit:2.61313}
    .fil4 {fill:none}
    .fil2 {fill:none;fill-rule:nonzero}
    .fil3 {fill:#FEFEFE}
    .fil7 {fill:#A45E4D}
    .fil6 {fill:#ED3237}
    .fil0 {fill:#C8C5E2}
    .fil5 {fill:#007341}
    .fil1 {fill:url(#id1)}
   ]]>
  </style>
    <clipPath id="id0">
     <rect x="621.67" width="213.22" height="147.66"/>
    </clipPath>
  <linearGradient id="id1" gradientUnits="userSpaceOnUse" x1="585.12" y1="1419.24" x2="585.12" y2="1090.31">
   <stop offset="0" style="stop-opacity:1; stop-color:#FEFEFE"/>
   <stop offset="0.121569" style="stop-opacity:1; stop-color:#EFEEF7"/>
   <stop offset="0.580392" style="stop-opacity:1; stop-color:#716CB0"/>
   <stop offset="1" style="stop-opacity:1; stop-color:#3E4095"/>
  </linearGradient>
 </defs>
 <g id="Layer_x0020_1">
  <metadata id="CorelCorpID_0Corel-Layer"/>
  <g id="_1828686784048">
   <path class="fil0 str0" d="M154.11 1117.5c-28.88,-15.64 -61.97,12.71 -92.58,6.33 -49.48,-8.98 -62.91,7.51 -59.97,35.61 2.5,16.24 5,32.49 7.49,48.73 -9.43,44.28 -7.33,74.9 0,99.33 4.31,18.83 7.19,37.82 0,58.1 -4.25,36.86 18.07,50.04 52.48,52.48 39.99,-2.5 79.97,-5 119.95,-7.5 41.58,11.82 85.3,14.32 131.19,7.5 49.03,-9.16 97.28,12.71 142.43,-1.87 71.22,5.53 142.43,8.55 213.66,3.75 64.34,-10.81 128.69,-9.54 193.04,0 41.86,2.1 83.7,7.23 125.57,-5.62 42.48,0.62 84.96,1.25 127.44,1.88 33.46,7.43 44.35,-4.91 44.98,-26.24 -2.61,-20.77 -3.94,-41.28 3.75,-59.97 8.07,-28.74 6.28,-57.48 0,-86.21 -9.7,-21.87 -8.27,-43.74 -7.5,-65.59 -0.63,-15 5.59,-35.47 -1.87,-44.98 -35.51,18.98 -70.08,-7.96 -106.83,9.37 -21.87,5.76 -46.98,6.62 -68.84,-0.04 -305.45,218.95 -579.48,224.81 -824.39,-25.03z"/>
   <path class="fil1 str0" d="M154.11 1105.95c-28.88,-15.64 -61.97,12.7 -92.58,6.33 -49.48,-8.98 -62.91,7.51 -59.97,35.61 2.5,16.24 5,32.48 7.49,48.73 -9.43,44.28 -7.33,74.9 0,99.33 4.31,18.83 7.19,37.82 0,58.1 -4.25,36.86 18.07,50.05 52.48,52.48 39.99,-2.5 79.97,-5 119.95,-7.49 41.58,11.82 85.3,14.31 131.19,7.49 49.03,-9.16 97.28,12.71 142.43,-1.87 71.22,5.54 142.43,8.56 213.66,3.75 64.34,-10.81 128.69,-9.54 193.04,0 41.86,2.1 83.7,7.23 125.57,-5.62 42.48,0.62 84.96,1.25 127.44,1.87 33.46,7.44 44.35,-4.91 44.98,-26.24 -2.61,-20.77 -3.94,-41.29 3.75,-59.97 8.07,-28.74 6.28,-57.48 0,-86.21 -9.7,-21.88 -8.27,-43.74 -7.5,-65.6 -0.63,-14.99 5.59,-35.47 -1.87,-44.98 -35.51,18.98 -70.08,-7.96 -106.83,9.37 -21.87,5.75 -46.98,6.62 -68.84,-0.05 -305.45,218.95 -579.48,224.81 -824.39,-25.03z"/>
   <path class="fil2 str1" d="M518.74 1534.14l2.87 -18.6c0.98,-6.35 2.66,-11.56 5.1,-15.56 2.44,-4.01 6.66,-8.46 12.79,-13.28 6.07,-4.83 15.51,-11.66 28.36,-20.55 30.8,-21.53 54.82,-32.26 71.95,-32.26 5.21,0 8.89,1.08 11.06,3.2 2.17,2.11 3.25,5.8 3.25,11.11 0,3.69 -1.41,8.78 -4.23,15.23 -2.82,6.46 -7.92,16.7 -15.4,30.7 -7.48,13.93 -14.04,26.51 -19.79,37.63 -4.66,9.11 -9.92,18.76 -15.89,29.01 -5.91,10.19 -9.87,17.24 -11.88,21.04 -2,3.85 -3.03,6.67 -3.03,8.57 0,2.12 0.7,3.96 2.06,5.53 1.36,1.51 3.09,2.28 5.1,2.28 2.77,0 5.85,-1.47 9.27,-4.45 3.47,-2.98 10.19,-9.38 20.27,-19.25 4.83,-4.88 10.09,-10.63 15.62,-17.3 5.58,-6.67 12.47,-15.24 20.77,-25.75 8.24,-10.47 15.89,-20.23 22.83,-29.23 4.34,-5.64 8.3,-10.63 11.77,-15.07 3.53,-4.5 6.51,-7.91 9,-10.3 2.5,-2.33 4.44,-3.53 5.96,-3.53 1.25,0 3.31,1.57 6.18,4.72l3.8 4.94c2.87,4.06 4.28,6.94 4.28,8.73 0,2.17 -3.91,9.92 -11.82,23.32 -7.92,13.39 -14.59,24.99 -20.12,34.75 -5.47,9.82 -12.63,23.97 -21.36,42.46 -8.73,18.49 -17.13,38.99 -25.16,61.55 21.47,-16.22 36.22,-27.01 44.13,-32.48 7.97,-5.42 13.72,-8.18 17.35,-8.18 2.44,0 3.63,1.03 3.63,3.03 0,2.22 -1.14,5.1 -3.47,8.68 -2.33,3.52 -5.48,7.43 -9.38,11.71 -3.91,4.33 -9.82,10.51 -17.73,18.6 -7.86,8.13 -16.48,16.86 -25.81,26.3 -5.69,5.86 -11.28,12.63 -16.64,20.34 -5.43,7.75 -9.6,13.71 -12.58,17.94 -2.99,4.23 -5.64,6.67 -8.08,7.32 -3.63,1.08 -6.89,0.27 -9.87,-2.39 -2.99,-2.66 -4.44,-6.84 -4.44,-12.52 0,-4.07 2.06,-12.37 6.13,-24.94 4.06,-12.63 10.25,-28.3 18.49,-47.06 4.88,-11.23 9.87,-21.85 14.91,-31.83 5.1,-10.03 10.95,-21.04 17.56,-33.08 6.62,-11.98 13.12,-23.42 19.47,-34.22 6.34,-10.79 11.76,-20.01 16.21,-27.65 -10.57,13.88 -21.09,27.39 -31.56,40.45 -10.41,13.07 -22.06,26.84 -34.92,41.32 -12.85,14.42 -25.86,27.98 -38.98,40.56 -5.75,5.43 -9.87,9.11 -12.31,11.06 -2.49,1.95 -5.8,2.92 -9.82,2.92 -2.54,0 -4.99,-0.87 -7.37,-2.6 -2.39,-1.79 -4.39,-4.06 -5.96,-6.83 -1.58,-2.82 -2.39,-5.53 -2.39,-8.19 0,-4.44 0.65,-8.35 2.01,-11.77 1.3,-3.36 3.63,-8.45 6.89,-15.23 14.42,-29.12 24.89,-49.13 31.5,-59.92 23.48,-37.68 35.25,-58.83 35.25,-63.39 0,-1.52 -0.54,-2.65 -1.58,-3.58 -1.08,-0.92 -2.39,-1.35 -4.01,-1.35 -2.93,0 -6.51,1.3 -10.63,3.9 -4.13,2.6 -9.33,6.4 -15.56,11.5 -6.24,5.1 -13.88,11.17 -22.83,18.27 -8.95,7.1 -18.33,13.88 -28.2,20.33 -3.9,2.55 -8.35,5.58 -13.23,9.06 -4.94,3.52 -7.81,5.25 -8.51,5.25 -1.52,0 -2.22,-0.76 -2.22,-2.22 0,-1.35 0.32,-4.28 0.92,-8.73zm228.33 66.26l0 3.96c0,6.24 1.52,11.12 4.61,14.59 3.04,3.53 7.1,5.26 12.04,5.26 5.2,0 10.57,-1.2 16.16,-3.63 5.53,-2.44 11.06,-5.7 16.53,-9.71 5.53,-4.01 12.26,-9.43 20.17,-16.21l0 9.7c-11.93,14.37 -23.15,25.43 -33.62,33.13 -10.52,7.65 -21.15,11.5 -31.94,11.5 -9.44,0 -16.86,-3.63 -22.39,-10.96 -5.48,-7.32 -8.24,-17.3 -8.24,-30.04 0,-11.12 2.6,-21.2 7.76,-30.26 5.2,-9.05 13.66,-18.6 25.43,-28.63 8.03,-6.88 16.05,-12.09 23.97,-15.56 7.92,-3.52 15.02,-5.26 21.25,-5.26 4.99,0 8.95,1.14 11.82,3.42 2.93,2.28 4.39,5.7 4.39,10.25 0,6.67 -2.5,13.29 -7.48,19.9 -4.94,6.61 -12.53,13.17 -22.78,19.73 -10.19,6.51 -22.78,12.74 -37.68,18.82zm1.57 -10.36c9.54,-3.69 17.68,-8.29 24.45,-13.82 6.78,-5.48 11.77,-10.74 15.02,-15.78 3.2,-5.05 4.83,-8.73 4.83,-11.06 0,-2.44 -1.08,-3.63 -3.31,-3.63 -1.95,0 -5.04,1.19 -9.33,3.63 -4.28,2.44 -8.62,5.64 -13.01,9.55 -4.39,3.9 -8.29,8.51 -11.82,13.82 -3.47,5.32 -5.75,11.06 -6.83,17.3zm86.59 -23.8c16.1,-14.64 31.72,-25.48 46.84,-32.58 15.13,-7.11 26.84,-10.63 35.08,-10.63 2.22,0 4.28,0.92 6.24,2.77 1.9,1.84 3.41,4.01 4.5,6.45 1.14,2.44 1.68,4.23 1.68,5.37 0,1.95 -0.76,3.36 -2.22,4.23 -1.47,0.92 -4.07,2.01 -7.81,3.25 0.76,1.68 1.73,3.85 2.87,6.51 1.19,2.66 2.06,4.83 2.71,6.46 0.65,1.63 0.92,3.09 0.92,4.33 0,2.55 -2.54,7.32 -7.7,14.26 -5.1,6.94 -8.73,12.04 -10.79,15.29 -2.06,3.31 -3.09,7.32 -3.09,12.09 0,7.81 3.58,11.77 10.79,11.77 7.43,0 19.03,-6.94 34.81,-20.82l0 9.71c-26.79,29.71 -45.98,44.62 -57.53,44.62 -4.12,0 -7.05,-1.35 -8.84,-4.06 -1.73,-2.71 -2.6,-6.67 -2.6,-11.98 0,-8.36 3.04,-20.5 9.06,-36.39 -15.45,17.14 -26.95,29.39 -34.43,36.6 -7.54,7.26 -13.72,10.9 -18.6,10.9 -2.33,0 -5.26,-2.01 -8.73,-6.02 -3.47,-4.07 -6.61,-9.28 -9.27,-15.67 -2.71,-6.4 -4.07,-13.07 -4.07,-19.9 0,-4.99 0.49,-9.17 1.41,-12.47 0.98,-3.37 2.82,-6.78 5.59,-10.25 2.76,-3.52 7.16,-8.13 13.18,-13.83zm76.07 -17.51c-27.54,12.58 -47.17,23.31 -58.83,32.1 -11.71,8.78 -17.57,17.84 -17.57,27.17 0,3.41 0.6,6.18 1.74,8.35 1.19,2.17 2.77,3.25 4.77,3.25 1.2,0 3.25,-0.76 6.18,-2.22 11.11,-6.56 21.31,-15.13 30.53,-25.65 9.22,-10.57 20.28,-24.89 33.18,-42.99zm35.78 58.12l0 -10.3c5.7,-6.77 10.03,-12.52 13.01,-17.29 -3.42,-1.14 -5.85,-2.6 -7.37,-4.28 -1.58,-1.68 -2.33,-4.23 -2.33,-7.64 0,-3.8 1.62,-8.62 4.77,-14.42 3.2,-5.86 7.1,-11.28 11.76,-16.37 4.66,-5.1 8.89,-8.35 12.69,-9.87 1.52,-0.71 2.93,-1.09 4.28,-1.09 2.17,0 3.2,0.98 3.2,3.04 0,1.79 -1.62,5.42 -4.93,10.95 21.8,-3.41 35.57,-5.1 41.32,-5.1 2.22,0 3.74,0.22 4.61,0.65 1.79,0.92 3.25,3.14 4.45,6.67 1.13,3.47 1.73,6.99 1.73,10.46 0,2.22 -0.98,4.66 -2.93,7.26 -1.95,2.55 -5.31,6.35 -10.08,11.33 -5.64,6.02 -10.3,12.58 -14.15,19.68 -3.8,7.1 -5.69,12.41 -5.69,16 0,4.99 3.09,7.48 9.22,7.48 6.45,0 17.67,-6.56 33.67,-19.68l0 10.63c-8.84,9.22 -16.05,16.49 -21.8,21.8 -5.69,5.26 -11.01,9.49 -15.89,12.63 -4.88,3.09 -9.22,4.66 -13.01,4.66 -4.44,0 -8.13,-2.06 -11.11,-6.12 -2.98,-4.07 -4.44,-9.98 -4.44,-17.68 0,-4.55 1.14,-9.76 3.47,-15.56 2.33,-5.86 5.75,-12.15 10.25,-18.98 4.51,-6.83 9.6,-13.66 15.18,-20.39 -2.98,0.6 -6.29,1.25 -10.03,1.95 -3.69,0.7 -7.59,1.41 -11.71,2.17 -4.12,0.71 -7.32,1.3 -9.54,1.74 -6.56,13.12 -16.11,25 -28.58,35.68zm95.92 -7.75l0 -3.79c27.32,-28.79 46.14,-49.02 56.39,-60.57 2.33,-13.02 7.97,-19.52 16.86,-19.52 2.22,0 4.61,0.65 7.1,1.9l0.98 3.04c-0.43,1.25 -0.65,3.09 -0.65,5.37 0,2.06 0.76,5.75 2.33,11.22 1.52,5.48 2.71,10.03 3.58,13.77 0.82,3.69 1.25,7.86 1.25,12.52 0,6.99 -1.58,13.72 -4.77,20.12 -3.14,6.39 -7.75,12.52 -13.83,18.43 -6.02,5.86 -13.77,11.88 -23.32,18.01 3.79,0.65 6.83,0.98 9.05,0.98 4.34,0 9,-1.09 14.04,-3.25 5.04,-2.17 10.19,-5.1 15.4,-8.73 5.26,-3.69 11.39,-8.4 18.33,-14.2l0 10.63c-13.55,13.23 -25.65,23.26 -36.33,30.1 -10.74,6.83 -19.96,10.25 -27.66,10.25 -9.98,0 -19.19,-4.23 -27.65,-12.69 -4.99,-5.1 -8.08,-9.98 -9.27,-14.64 -1.25,-4.66 -1.84,-10.95 -1.84,-18.92zm59.27 -24.29l-2.87 -23.21c-6.56,7.43 -20.55,21.69 -42.08,42.73 6.35,1.41 10.68,3.25 13.01,5.59 2.33,2.33 5.64,6.83 9.87,13.5 7.21,-2.99 12.74,-6.99 16.59,-12.15 3.85,-5.15 5.8,-12.15 5.8,-21.04 0,-1.09 0,-2.06 -0.06,-2.87 -0.05,-0.87 -0.16,-1.68 -0.27,-2.55z"/>
   <path class="fil2" d="M518.74 1534.14l2.87 -18.6c0.98,-6.35 2.66,-11.56 5.1,-15.56 2.44,-4.01 6.66,-8.46 12.79,-13.28 6.07,-4.83 15.51,-11.66 28.36,-20.55 30.8,-21.53 54.82,-32.26 71.95,-32.26 5.21,0 8.89,1.08 11.06,3.2 2.17,2.11 3.25,5.8 3.25,11.11 0,3.69 -1.41,8.78 -4.23,15.23 -2.82,6.46 -7.92,16.7 -15.4,30.7 -7.48,13.93 -14.04,26.51 -19.79,37.63 -4.66,9.11 -9.92,18.76 -15.89,29.01 -5.91,10.19 -9.87,17.24 -11.88,21.04 -2,3.85 -3.03,6.67 -3.03,8.57 0,2.12 0.7,3.96 2.06,5.53 1.36,1.51 3.09,2.28 5.1,2.28 2.77,0 5.85,-1.47 9.27,-4.45 3.47,-2.98 10.19,-9.38 20.27,-19.25 4.83,-4.88 10.09,-10.63 15.62,-17.3 5.58,-6.67 12.47,-15.24 20.77,-25.75 8.24,-10.47 15.89,-20.23 22.83,-29.23 4.34,-5.64 8.3,-10.63 11.77,-15.07 3.53,-4.5 6.51,-7.91 9,-10.3 2.5,-2.33 4.44,-3.53 5.96,-3.53 1.25,0 3.31,1.57 6.18,4.72l3.8 4.94c2.87,4.06 4.28,6.94 4.28,8.73 0,2.17 -3.91,9.92 -11.82,23.32 -7.92,13.39 -14.59,24.99 -20.12,34.75 -5.47,9.82 -12.63,23.97 -21.36,42.46 -8.73,18.49 -17.13,38.99 -25.16,61.55 21.47,-16.22 36.22,-27.01 44.13,-32.48 7.97,-5.42 13.72,-8.18 17.35,-8.18 2.44,0 3.63,1.03 3.63,3.03 0,2.22 -1.14,5.1 -3.47,8.68 -2.33,3.52 -5.48,7.43 -9.38,11.71 -3.91,4.33 -9.82,10.51 -17.73,18.6 -7.86,8.13 -16.48,16.86 -25.81,26.3 -5.69,5.86 -11.28,12.63 -16.64,20.34 -5.43,7.75 -9.6,13.71 -12.58,17.94 -2.99,4.23 -5.64,6.67 -8.08,7.32 -3.63,1.08 -6.89,0.27 -9.87,-2.39 -2.99,-2.66 -4.44,-6.84 -4.44,-12.52 0,-4.07 2.06,-12.37 6.13,-24.94 4.06,-12.63 10.25,-28.3 18.49,-47.06 4.88,-11.23 9.87,-21.85 14.91,-31.83 5.1,-10.03 10.95,-21.04 17.56,-33.08 6.62,-11.98 13.12,-23.42 19.47,-34.22 6.34,-10.79 11.76,-20.01 16.21,-27.65 -10.57,13.88 -21.09,27.39 -31.56,40.45 -10.41,13.07 -22.06,26.84 -34.92,41.32 -12.85,14.42 -25.86,27.98 -38.98,40.56 -5.75,5.43 -9.87,9.11 -12.31,11.06 -2.49,1.95 -5.8,2.92 -9.82,2.92 -2.54,0 -4.99,-0.87 -7.37,-2.6 -2.39,-1.79 -4.39,-4.06 -5.96,-6.83 -1.58,-2.82 -2.39,-5.53 -2.39,-8.19 0,-4.44 0.65,-8.35 2.01,-11.77 1.3,-3.36 3.63,-8.45 6.89,-15.23 14.42,-29.12 24.89,-49.13 31.5,-59.92 23.48,-37.68 35.25,-58.83 35.25,-63.39 0,-1.52 -0.54,-2.65 -1.58,-3.58 -1.08,-0.92 -2.39,-1.35 -4.01,-1.35 -2.93,0 -6.51,1.3 -10.63,3.9 -4.13,2.6 -9.33,6.4 -15.56,11.5 -6.24,5.1 -13.88,11.17 -22.83,18.27 -8.95,7.1 -18.33,13.88 -28.2,20.33 -3.9,2.55 -8.35,5.58 -13.23,9.06 -4.94,3.52 -7.81,5.25 -8.51,5.25 -1.52,0 -2.22,-0.76 -2.22,-2.22 0,-1.35 0.32,-4.28 0.92,-8.73zm228.33 66.26l0 3.96c0,6.24 1.52,11.12 4.61,14.59 3.04,3.53 7.1,5.26 12.04,5.26 5.2,0 10.57,-1.2 16.16,-3.63 5.53,-2.44 11.06,-5.7 16.53,-9.71 5.53,-4.01 12.26,-9.43 20.17,-16.21l0 9.7c-11.93,14.37 -23.15,25.43 -33.62,33.13 -10.52,7.65 -21.15,11.5 -31.94,11.5 -9.44,0 -16.86,-3.63 -22.39,-10.96 -5.48,-7.32 -8.24,-17.3 -8.24,-30.04 0,-11.12 2.6,-21.2 7.76,-30.26 5.2,-9.05 13.66,-18.6 25.43,-28.63 8.03,-6.88 16.05,-12.09 23.97,-15.56 7.92,-3.52 15.02,-5.26 21.25,-5.26 4.99,0 8.95,1.14 11.82,3.42 2.93,2.28 4.39,5.7 4.39,10.25 0,6.67 -2.5,13.29 -7.48,19.9 -4.94,6.61 -12.53,13.17 -22.78,19.73 -10.19,6.51 -22.78,12.74 -37.68,18.82zm1.57 -10.36c9.54,-3.69 17.68,-8.29 24.45,-13.82 6.78,-5.48 11.77,-10.74 15.02,-15.78 3.2,-5.05 4.83,-8.73 4.83,-11.06 0,-2.44 -1.08,-3.63 -3.31,-3.63 -1.95,0 -5.04,1.19 -9.33,3.63 -4.28,2.44 -8.62,5.64 -13.01,9.55 -4.39,3.9 -8.29,8.51 -11.82,13.82 -3.47,5.32 -5.75,11.06 -6.83,17.3zm86.59 -23.8c16.1,-14.64 31.72,-25.48 46.84,-32.58 15.13,-7.11 26.84,-10.63 35.08,-10.63 2.22,0 4.28,0.92 6.24,2.77 1.9,1.84 3.41,4.01 4.5,6.45 1.14,2.44 1.68,4.23 1.68,5.37 0,1.95 -0.76,3.36 -2.22,4.23 -1.47,0.92 -4.07,2.01 -7.81,3.25 0.76,1.68 1.73,3.85 2.87,6.51 1.19,2.66 2.06,4.83 2.71,6.46 0.65,1.63 0.92,3.09 0.92,4.33 0,2.55 -2.54,7.32 -7.7,14.26 -5.1,6.94 -8.73,12.04 -10.79,15.29 -2.06,3.31 -3.09,7.32 -3.09,12.09 0,7.81 3.58,11.77 10.79,11.77 7.43,0 19.03,-6.94 34.81,-20.82l0 9.71c-26.79,29.71 -45.98,44.62 -57.53,44.62 -4.12,0 -7.05,-1.35 -8.84,-4.06 -1.73,-2.71 -2.6,-6.67 -2.6,-11.98 0,-8.36 3.04,-20.5 9.06,-36.39 -15.45,17.14 -26.95,29.39 -34.43,36.6 -7.54,7.26 -13.72,10.9 -18.6,10.9 -2.33,0 -5.26,-2.01 -8.73,-6.02 -3.47,-4.07 -6.61,-9.28 -9.27,-15.67 -2.71,-6.4 -4.07,-13.07 -4.07,-19.9 0,-4.99 0.49,-9.17 1.41,-12.47 0.98,-3.37 2.82,-6.78 5.59,-10.25 2.76,-3.52 7.16,-8.13 13.18,-13.83zm76.07 -17.51c-27.54,12.58 -47.17,23.31 -58.83,32.1 -11.71,8.78 -17.57,17.84 -17.57,27.17 0,3.41 0.6,6.18 1.74,8.35 1.19,2.17 2.77,3.25 4.77,3.25 1.2,0 3.25,-0.76 6.18,-2.22 11.11,-6.56 21.31,-15.13 30.53,-25.65 9.22,-10.57 20.28,-24.89 33.18,-42.99zm35.78 58.12l0 -10.3c5.7,-6.77 10.03,-12.52 13.01,-17.29 -3.42,-1.14 -5.85,-2.6 -7.37,-4.28 -1.58,-1.68 -2.33,-4.23 -2.33,-7.64 0,-3.8 1.62,-8.62 4.77,-14.42 3.2,-5.86 7.1,-11.28 11.76,-16.37 4.66,-5.1 8.89,-8.35 12.69,-9.87 1.52,-0.71 2.93,-1.09 4.28,-1.09 2.17,0 3.2,0.98 3.2,3.04 0,1.79 -1.62,5.42 -4.93,10.95 21.8,-3.41 35.57,-5.1 41.32,-5.1 2.22,0 3.74,0.22 4.61,0.65 1.79,0.92 3.25,3.14 4.45,6.67 1.13,3.47 1.73,6.99 1.73,10.46 0,2.22 -0.98,4.66 -2.93,7.26 -1.95,2.55 -5.31,6.35 -10.08,11.33 -5.64,6.02 -10.3,12.58 -14.15,19.68 -3.8,7.1 -5.69,12.41 -5.69,16 0,4.99 3.09,7.48 9.22,7.48 6.45,0 17.67,-6.56 33.67,-19.68l0 10.63c-8.84,9.22 -16.05,16.49 -21.8,21.8 -5.69,5.26 -11.01,9.49 -15.89,12.63 -4.88,3.09 -9.22,4.66 -13.01,4.66 -4.44,0 -8.13,-2.06 -11.11,-6.12 -2.98,-4.07 -4.44,-9.98 -4.44,-17.68 0,-4.55 1.14,-9.76 3.47,-15.56 2.33,-5.86 5.75,-12.15 10.25,-18.98 4.51,-6.83 9.6,-13.66 15.18,-20.39 -2.98,0.6 -6.29,1.25 -10.03,1.95 -3.69,0.7 -7.59,1.41 -11.71,2.17 -4.12,0.71 -7.32,1.3 -9.54,1.74 -6.56,13.12 -16.11,25 -28.58,35.68zm95.92 -7.75l0 -3.79c27.32,-28.79 46.14,-49.02 56.39,-60.57 2.33,-13.02 7.97,-19.52 16.86,-19.52 2.22,0 4.61,0.65 7.1,1.9l0.98 3.04c-0.43,1.25 -0.65,3.09 -0.65,5.37 0,2.06 0.76,5.75 2.33,11.22 1.52,5.48 2.71,10.03 3.58,13.77 0.82,3.69 1.25,7.86 1.25,12.52 0,6.99 -1.58,13.72 -4.77,20.12 -3.14,6.39 -7.75,12.52 -13.83,18.43 -6.02,5.86 -13.77,11.88 -23.32,18.01 3.79,0.65 6.83,0.98 9.05,0.98 4.34,0 9,-1.09 14.04,-3.25 5.04,-2.17 10.19,-5.1 15.4,-8.73 5.26,-3.69 11.39,-8.4 18.33,-14.2l0 10.63c-13.55,13.23 -25.65,23.26 -36.33,30.1 -10.74,6.83 -19.96,10.25 -27.66,10.25 -9.98,0 -19.19,-4.23 -27.65,-12.69 -4.99,-5.1 -8.08,-9.98 -9.27,-14.64 -1.25,-4.66 -1.84,-10.95 -1.84,-18.92zm59.27 -24.29l-2.87 -23.21c-6.56,7.43 -20.55,21.69 -42.08,42.73 6.35,1.41 10.68,3.25 13.01,5.59 2.33,2.33 5.64,6.83 9.87,13.5 7.21,-2.99 12.74,-6.99 16.59,-12.15 3.85,-5.15 5.8,-12.15 5.8,-21.04 0,-1.09 0,-2.06 -0.06,-2.87 -0.05,-0.87 -0.16,-1.68 -0.27,-2.55z"/>
   <path class="fil3 str2" d="M59.32 988.02c35.36,46.72 68.57,99.57 110.26,140.72 226.31,223.24 499.8,223.97 783.98,27.98 77.83,-53.68 106,-150.63 194.07,-193.89 -169.69,16.37 -403.57,116.92 -592.36,116.91 -173.65,-0 -332.8,-48.59 -495.94,-91.71z"/>
   <path class="fil4 str3" d="M979.4 1135.89c59.53,-55.16 90.64,-134.95 168.22,-173.07 -169.69,16.37 -403.57,116.92 -592.36,116.91 -173.65,-0 -332.8,-48.59 -495.94,-91.71 29.74,39.3 57.98,82.95 91.01,120.32"/>
   <polyline class="fil4 str4" points="604.23,881.28 615.9,438.25 803.14,1001.81 "/>
   <path class="fil0" d="M101.21 1210.57c0.76,0.29 1.54,0.59 2.3,0.88 0.8,0.25 1.59,0.48 2.38,0.73 0.8,0.19 1.59,0.39 2.4,0.58 0.81,0.15 1.64,0.29 2.45,0.44 0.83,0.1 1.65,0.2 2.47,0.31 0.82,0.06 1.66,0.11 2.48,0.17 0.84,0.01 1.67,0.03 2.5,0.04 0.82,-0.04 1.66,-0.06 2.5,-0.09 0.82,-0.07 1.65,-0.14 2.48,-0.21 0.82,-0.11 1.64,-0.22 2.48,-0.33 0.8,-0.15 1.62,-0.29 2.43,-0.44 0.8,-0.18 1.6,-0.36 2.4,-0.55 0.78,-0.21 1.56,-0.43 2.35,-0.64 0.76,-0.25 1.53,-0.5 2.28,-0.74 0.77,-0.29 1.54,-0.59 2.31,-0.88 1.77,-0.65 3.54,-1.29 5.31,-1.95 1.78,-0.5 3.56,-1 5.34,-1.51 1.74,-0.34 3.5,-0.68 5.24,-1.02 1.71,-0.15 3.41,-0.31 5.11,-0.47 1.65,0.05 3.3,0.1 4.94,0.13 1.58,0.29 3.16,0.55 4.74,0.82 1.49,0.52 2.98,1.03 4.46,1.56 9.49,5.5 6.15,11.37 -2.83,6.16 -1.11,-0.39 -2.22,-0.78 -3.33,-1.17 -1.23,-0.21 -2.48,-0.43 -3.71,-0.63 -1.35,-0.05 -2.71,-0.09 -4.07,-0.13 -1.45,0.13 -2.91,0.27 -4.37,0.39 -1.54,0.3 -3.08,0.6 -4.62,0.9 -1.61,0.46 -3.2,0.91 -4.82,1.37 -1.69,0.61 -3.37,1.23 -5.05,1.85 -0.81,0.3 -1.62,0.6 -2.42,0.91 -0.86,0.28 -1.72,0.56 -2.58,0.84 -0.89,0.25 -1.77,0.49 -2.66,0.74 -0.9,0.2 -1.8,0.4 -2.69,0.61 -0.92,0.16 -1.84,0.32 -2.75,0.49 -0.93,0.12 -1.85,0.24 -2.77,0.36 -0.94,0.07 -1.87,0.16 -2.81,0.24 -0.94,0.02 -1.89,0.06 -2.83,0.09 -0.96,-0.01 -1.9,-0.03 -2.85,-0.05 -0.95,-0.06 -1.89,-0.12 -2.85,-0.19 -0.94,-0.11 -1.9,-0.24 -2.83,-0.36 -0.94,-0.16 -1.89,-0.33 -2.83,-0.5 -0.94,-0.23 -1.86,-0.46 -2.79,-0.69 -0.91,-0.3 -1.84,-0.56 -2.76,-0.85 -0.91,-0.34 -1.82,-0.68 -2.73,-1.03 -8.31,-3.79 -5.33,-9.88 2.61,-6.23zm392.48 122.32c0.95,0.36 1.9,0.72 2.85,1.09 0.97,0.3 1.95,0.6 2.92,0.89 0.98,0.24 1.97,0.48 2.96,0.72 1,0.18 2.01,0.36 3.02,0.54 1.01,0.13 2.03,0.25 3.04,0.38 1.02,0.07 2.04,0.14 3.07,0.21 1.02,0.02 2.04,0.03 3.07,0.06 1.02,-0.04 2.05,-0.07 3.08,-0.11 1.02,-0.09 2.04,-0.17 3.07,-0.25 1.01,-0.14 2.03,-0.27 3.04,-0.4 1,-0.18 2,-0.36 3,-0.53 0.98,-0.23 1.97,-0.45 2.96,-0.68 0.97,-0.27 1.93,-0.53 2.9,-0.8 0.94,-0.31 1.88,-0.62 2.83,-0.92 0.95,-0.36 1.9,-0.71 2.85,-1.07 2.18,-0.8 4.36,-1.6 6.55,-2.4 2.19,-0.62 4.38,-1.25 6.58,-1.87 2.15,-0.42 4.31,-0.84 6.46,-1.26 2.1,-0.19 4.19,-0.38 6.3,-0.57 2.03,0.06 4.06,0.11 6.1,0.17 1.94,0.34 3.88,0.68 5.83,1.01 1.84,0.64 3.67,1.28 5.51,1.91 11.7,6.79 7.57,14.02 -3.49,7.6 -1.37,-0.48 -2.74,-0.96 -4.11,-1.44 -1.53,-0.26 -3.05,-0.53 -4.57,-0.79 -1.67,-0.05 -3.34,-0.1 -5.01,-0.14 -1.8,0.16 -3.59,0.32 -5.38,0.48 -1.9,0.37 -3.8,0.74 -5.7,1.11 -1.98,0.57 -3.96,1.13 -5.95,1.7 -2.08,0.76 -4.15,1.52 -6.22,2.28 -1,0.37 -1.99,0.75 -2.99,1.12 -1.06,0.34 -2.12,0.69 -3.18,1.04 -1.09,0.3 -2.18,0.6 -3.26,0.9 -1.11,0.25 -2.22,0.51 -3.33,0.76 -1.13,0.2 -2.26,0.4 -3.38,0.6 -1.14,0.15 -2.29,0.3 -3.43,0.45 -1.16,0.1 -2.31,0.2 -3.46,0.3 -1.17,0.04 -2.33,0.08 -3.5,0.12 -1.17,-0.02 -2.34,-0.04 -3.5,-0.06 -1.17,-0.08 -2.34,-0.16 -3.51,-0.24 -1.17,-0.15 -2.34,-0.29 -3.5,-0.43 -1.17,-0.21 -2.33,-0.42 -3.49,-0.63 -1.15,-0.28 -2.3,-0.57 -3.44,-0.85 -1.14,-0.35 -2.27,-0.7 -3.41,-1.04 -1.12,-0.42 -2.24,-0.84 -3.36,-1.26 -10.26,-4.69 -6.59,-12.17 3.21,-7.69zm537.67 -148.76c0.95,0.36 1.9,0.72 2.85,1.09 0.97,0.3 1.95,0.6 2.92,0.9 0.98,0.24 1.97,0.48 2.96,0.72 1.01,0.18 2.01,0.36 3.02,0.54 1.02,0.12 2.03,0.25 3.04,0.38 1.02,0.07 2.04,0.14 3.07,0.21 1.02,0.02 2.04,0.03 3.07,0.05 1.02,-0.04 2.05,-0.07 3.07,-0.11 1.02,-0.09 2.04,-0.17 3.07,-0.25 1.01,-0.14 2.03,-0.27 3.04,-0.4 1,-0.18 2,-0.36 3,-0.54 0.98,-0.23 1.97,-0.45 2.96,-0.68 0.96,-0.26 1.93,-0.53 2.9,-0.8 0.94,-0.31 1.88,-0.62 2.83,-0.92 0.94,-0.36 1.89,-0.71 2.85,-1.07 2.18,-0.8 4.36,-1.6 6.55,-2.4 2.19,-0.62 4.38,-1.25 6.58,-1.87 2.15,-0.42 4.3,-0.84 6.46,-1.26 2.1,-0.19 4.2,-0.38 6.3,-0.57 2.03,0.06 4.06,0.11 6.1,0.17 1.94,0.34 3.89,0.68 5.83,1.01 1.84,0.64 3.67,1.27 5.51,1.91 11.7,6.79 7.57,14.02 -3.5,7.6 -1.37,-0.48 -2.74,-0.96 -4.1,-1.44 -1.53,-0.26 -3.05,-0.53 -4.57,-0.79 -1.67,-0.05 -3.34,-0.1 -5.01,-0.15 -1.8,0.16 -3.59,0.33 -5.39,0.49 -1.9,0.37 -3.8,0.74 -5.7,1.11 -1.98,0.57 -3.96,1.13 -5.95,1.69 -2.08,0.76 -4.15,1.52 -6.23,2.28 -0.99,0.37 -1.99,0.75 -2.99,1.12 -1.06,0.34 -2.13,0.69 -3.18,1.04 -1.09,0.3 -2.17,0.6 -3.26,0.9 -1.12,0.25 -2.22,0.51 -3.33,0.76 -1.13,0.2 -2.26,0.4 -3.38,0.6 -1.14,0.15 -2.28,0.3 -3.43,0.45 -1.16,0.09 -2.31,0.19 -3.46,0.29 -1.17,0.04 -2.34,0.08 -3.5,0.12 -1.17,-0.02 -2.34,-0.04 -3.5,-0.06 -1.17,-0.08 -2.34,-0.16 -3.51,-0.24 -1.17,-0.15 -2.33,-0.29 -3.5,-0.43 -1.16,-0.21 -2.33,-0.42 -3.49,-0.63 -1.15,-0.28 -2.3,-0.57 -3.45,-0.85 -1.13,-0.35 -2.27,-0.7 -3.4,-1.04 -1.12,-0.42 -2.24,-0.84 -3.36,-1.26 -10.26,-4.68 -6.59,-12.17 3.21,-7.69zm-923.24 1.21c0.95,0.36 1.9,0.72 2.85,1.09 0.97,0.3 1.95,0.6 2.92,0.9 0.98,0.24 1.97,0.48 2.96,0.72 1,0.18 2.01,0.36 3.02,0.55 1.01,0.12 2.03,0.25 3.04,0.38 1.02,0.07 2.04,0.14 3.07,0.21 1.02,0.02 2.04,0.03 3.07,0.05 1.02,-0.04 2.05,-0.07 3.08,-0.11 1.02,-0.09 2.04,-0.17 3.07,-0.25 1.01,-0.14 2.03,-0.27 3.04,-0.4 1,-0.18 2,-0.36 3,-0.54 0.98,-0.23 1.97,-0.45 2.96,-0.68 0.97,-0.27 1.93,-0.53 2.9,-0.8 0.94,-0.31 1.88,-0.62 2.83,-0.92 0.95,-0.36 1.9,-0.71 2.85,-1.07 2.18,-0.8 4.36,-1.6 6.55,-2.4 2.19,-0.62 4.38,-1.25 6.58,-1.87 2.15,-0.42 4.31,-0.84 6.46,-1.26 2.1,-0.19 4.19,-0.38 6.3,-0.57 2.03,0.06 4.06,0.12 6.1,0.17 1.94,0.34 3.88,0.68 5.83,1.01 1.84,0.64 3.67,1.28 5.51,1.91 11.7,6.79 7.57,14.02 -3.49,7.59 -1.37,-0.48 -2.74,-0.96 -4.11,-1.44 -1.53,-0.27 -3.05,-0.53 -4.57,-0.79 -1.67,-0.05 -3.34,-0.1 -5.01,-0.15 -1.8,0.16 -3.59,0.32 -5.38,0.48 -1.9,0.37 -3.8,0.74 -5.7,1.11 -1.98,0.57 -3.96,1.13 -5.95,1.7 -2.08,0.76 -4.15,1.52 -6.22,2.28 -1,0.38 -1.99,0.75 -2.99,1.12 -1.06,0.34 -2.12,0.69 -3.18,1.04 -1.09,0.3 -2.18,0.6 -3.26,0.9 -1.12,0.25 -2.22,0.51 -3.33,0.76 -1.13,0.2 -2.26,0.4 -3.38,0.6 -1.14,0.15 -2.29,0.3 -3.43,0.45 -1.16,0.1 -2.31,0.2 -3.46,0.3 -1.17,0.04 -2.33,0.08 -3.5,0.12 -1.17,-0.02 -2.34,-0.04 -3.5,-0.06 -1.17,-0.08 -2.34,-0.16 -3.51,-0.24 -1.17,-0.15 -2.34,-0.29 -3.5,-0.44 -1.17,-0.21 -2.33,-0.42 -3.49,-0.63 -1.15,-0.28 -2.3,-0.57 -3.44,-0.85 -1.14,-0.35 -2.27,-0.7 -3.41,-1.04 -1.12,-0.43 -2.24,-0.85 -3.36,-1.26 -10.26,-4.68 -6.59,-12.17 3.21,-7.69zm121.94 98.31c0.95,0.36 1.9,0.72 2.85,1.09 0.97,0.3 1.95,0.6 2.92,0.9 0.98,0.24 1.98,0.48 2.96,0.72 1,0.18 2.01,0.36 3.02,0.54 1.01,0.12 2.03,0.25 3.04,0.38 1.02,0.07 2.04,0.14 3.07,0.21 1.02,0.02 2.04,0.03 3.07,0.05 1.02,-0.04 2.05,-0.07 3.08,-0.11 1.02,-0.09 2.04,-0.17 3.07,-0.25 1.02,-0.14 2.03,-0.27 3.05,-0.4 1,-0.18 2,-0.36 3,-0.54 0.98,-0.23 1.97,-0.45 2.96,-0.68 0.97,-0.26 1.93,-0.53 2.9,-0.8 0.94,-0.31 1.88,-0.62 2.82,-0.92 0.95,-0.36 1.9,-0.72 2.85,-1.08 2.18,-0.8 4.37,-1.6 6.55,-2.4 2.19,-0.62 4.38,-1.25 6.58,-1.87 2.15,-0.42 4.31,-0.84 6.46,-1.26 2.1,-0.19 4.2,-0.38 6.3,-0.57 2.03,0.06 4.06,0.12 6.1,0.17 1.94,0.34 3.88,0.68 5.83,1.02 1.84,0.64 3.67,1.27 5.51,1.91 11.7,6.79 7.57,14.02 -3.5,7.6 -1.37,-0.48 -2.74,-0.96 -4.11,-1.44 -1.52,-0.27 -3.05,-0.53 -4.57,-0.79 -1.67,-0.05 -3.34,-0.1 -5.01,-0.15 -1.79,0.16 -3.59,0.32 -5.38,0.48 -1.9,0.37 -3.8,0.74 -5.7,1.11 -1.98,0.56 -3.96,1.13 -5.94,1.69 -2.08,0.76 -4.15,1.52 -6.23,2.28 -1,0.38 -1.99,0.75 -2.99,1.12 -1.06,0.34 -2.12,0.69 -3.18,1.04 -1.09,0.3 -2.18,0.6 -3.26,0.9 -1.11,0.25 -2.22,0.51 -3.33,0.76 -1.13,0.2 -2.26,0.4 -3.38,0.6 -1.14,0.15 -2.29,0.3 -3.43,0.45 -1.15,0.1 -2.31,0.2 -3.46,0.3 -1.17,0.04 -2.33,0.08 -3.5,0.12 -1.17,-0.02 -2.33,-0.04 -3.5,-0.06 -1.17,-0.08 -2.34,-0.16 -3.51,-0.24 -1.17,-0.15 -2.34,-0.29 -3.5,-0.44 -1.17,-0.21 -2.33,-0.42 -3.49,-0.63 -1.15,-0.28 -2.3,-0.57 -3.44,-0.85 -1.13,-0.35 -2.27,-0.7 -3.41,-1.04 -1.12,-0.43 -2.24,-0.85 -3.36,-1.26 -10.25,-4.68 -6.59,-12.17 3.21,-7.69zm670.38 11.45c0.95,0.36 1.9,0.72 2.85,1.09 0.97,0.3 1.95,0.6 2.92,0.9 0.98,0.24 1.97,0.48 2.96,0.72 1,0.18 2.01,0.36 3.02,0.54 1.01,0.12 2.03,0.25 3.04,0.38 1.02,0.07 2.04,0.14 3.07,0.21 1.02,0.02 2.04,0.03 3.07,0.05 1.02,-0.04 2.05,-0.07 3.08,-0.11 1.02,-0.09 2.04,-0.17 3.07,-0.25 1.01,-0.14 2.03,-0.27 3.04,-0.4 1,-0.18 2,-0.36 3,-0.54 0.98,-0.23 1.97,-0.45 2.96,-0.68 0.96,-0.26 1.93,-0.53 2.9,-0.8 0.94,-0.31 1.88,-0.62 2.83,-0.92 0.95,-0.36 1.9,-0.71 2.85,-1.07 2.18,-0.8 4.36,-1.6 6.55,-2.4 2.19,-0.62 4.38,-1.25 6.58,-1.87 2.15,-0.42 4.3,-0.84 6.46,-1.26 2.1,-0.19 4.19,-0.38 6.3,-0.57 2.03,0.06 4.06,0.12 6.1,0.17 1.94,0.34 3.89,0.68 5.83,1.02 1.84,0.64 3.67,1.27 5.51,1.91 11.7,6.79 7.57,14.02 -3.49,7.6 -1.37,-0.48 -2.74,-0.96 -4.11,-1.44 -1.53,-0.27 -3.05,-0.53 -4.57,-0.79 -1.67,-0.05 -3.34,-0.1 -5.01,-0.15 -1.8,0.16 -3.59,0.32 -5.38,0.48 -1.9,0.37 -3.8,0.74 -5.7,1.11 -1.98,0.56 -3.96,1.13 -5.95,1.69 -2.08,0.76 -4.15,1.52 -6.22,2.28 -1,0.38 -1.99,0.75 -2.99,1.12 -1.06,0.34 -2.12,0.69 -3.18,1.04 -1.09,0.3 -2.18,0.6 -3.26,0.9 -1.12,0.25 -2.22,0.51 -3.33,0.76 -1.13,0.2 -2.26,0.4 -3.38,0.6 -1.14,0.15 -2.29,0.3 -3.43,0.45 -1.16,0.1 -2.31,0.2 -3.46,0.3 -1.17,0.04 -2.34,0.08 -3.5,0.12 -1.17,-0.02 -2.34,-0.04 -3.5,-0.06 -1.17,-0.08 -2.34,-0.16 -3.51,-0.24 -1.17,-0.15 -2.34,-0.29 -3.5,-0.44 -1.17,-0.21 -2.33,-0.42 -3.49,-0.63 -1.15,-0.28 -2.3,-0.57 -3.45,-0.85 -1.13,-0.35 -2.27,-0.7 -3.4,-1.04 -1.12,-0.43 -2.24,-0.85 -3.36,-1.26 -10.26,-4.68 -6.59,-12.17 3.21,-7.69zm-261.24 45.13c0.95,0.36 1.9,0.72 2.85,1.09 0.97,0.3 1.95,0.6 2.92,0.89 0.98,0.24 1.97,0.48 2.96,0.72 1.01,0.18 2.01,0.36 3.02,0.54 1.02,0.12 2.03,0.25 3.04,0.38 1.02,0.07 2.04,0.14 3.07,0.21 1.02,0.02 2.04,0.03 3.07,0.06 1.02,-0.04 2.05,-0.07 3.07,-0.11 1.02,-0.09 2.04,-0.17 3.07,-0.25 1.01,-0.14 2.03,-0.27 3.04,-0.4 1,-0.18 2,-0.36 3,-0.53 0.98,-0.23 1.97,-0.45 2.96,-0.68 0.96,-0.27 1.93,-0.53 2.9,-0.8 0.94,-0.31 1.88,-0.62 2.83,-0.92 0.95,-0.36 1.9,-0.71 2.85,-1.07 2.18,-0.8 4.36,-1.6 6.55,-2.4 2.19,-0.62 4.38,-1.25 6.58,-1.87 2.15,-0.42 4.3,-0.84 6.46,-1.26 2.1,-0.19 4.2,-0.38 6.3,-0.57 2.03,0.06 4.06,0.11 6.1,0.17 1.94,0.34 3.89,0.68 5.83,1.01 1.84,0.64 3.67,1.28 5.51,1.91 11.7,6.79 7.57,14.02 -3.5,7.6 -1.37,-0.48 -2.74,-0.96 -4.1,-1.44 -1.53,-0.26 -3.05,-0.53 -4.57,-0.79 -1.67,-0.05 -3.34,-0.1 -5.01,-0.15 -1.8,0.16 -3.59,0.33 -5.38,0.49 -1.9,0.37 -3.8,0.74 -5.7,1.11 -1.98,0.57 -3.96,1.13 -5.95,1.7 -2.08,0.76 -4.15,1.52 -6.22,2.28 -1,0.37 -1.99,0.75 -2.99,1.12 -1.06,0.34 -2.12,0.69 -3.18,1.04 -1.09,0.3 -2.18,0.6 -3.26,0.9 -1.12,0.25 -2.22,0.51 -3.33,0.76 -1.13,0.2 -2.26,0.4 -3.38,0.6 -1.14,0.15 -2.28,0.3 -3.43,0.45 -1.16,0.09 -2.31,0.2 -3.46,0.3 -1.17,0.04 -2.34,0.08 -3.5,0.12 -1.17,-0.02 -2.34,-0.04 -3.5,-0.06 -1.17,-0.08 -2.34,-0.16 -3.5,-0.24 -1.17,-0.15 -2.34,-0.29 -3.5,-0.43 -1.16,-0.21 -2.33,-0.42 -3.49,-0.63 -1.15,-0.28 -2.3,-0.57 -3.45,-0.85 -1.13,-0.35 -2.27,-0.7 -3.4,-1.04 -1.12,-0.42 -2.24,-0.84 -3.36,-1.26 -10.26,-4.69 -6.59,-12.17 3.21,-7.69zm258.64 -123.6c0.95,0.36 1.9,0.72 2.85,1.09 0.97,0.3 1.94,0.6 2.91,0.9 0.98,0.24 1.98,0.48 2.96,0.72 1.01,0.18 2.01,0.36 3.02,0.54 1.01,0.12 2.03,0.25 3.04,0.38 1.02,0.07 2.04,0.14 3.07,0.21 1.02,0.02 2.04,0.03 3.07,0.05 1.02,-0.04 2.05,-0.07 3.08,-0.11 1.02,-0.09 2.04,-0.17 3.07,-0.25 1.02,-0.14 2.03,-0.27 3.05,-0.4 1,-0.18 2,-0.36 3,-0.53 0.98,-0.23 1.97,-0.45 2.96,-0.68 0.96,-0.27 1.93,-0.53 2.9,-0.8 0.94,-0.31 1.88,-0.62 2.82,-0.92 0.95,-0.36 1.9,-0.71 2.85,-1.07 2.18,-0.8 4.37,-1.6 6.55,-2.4 2.19,-0.62 4.38,-1.25 6.58,-1.87 2.15,-0.42 4.31,-0.84 6.46,-1.26 2.1,-0.19 4.2,-0.38 6.3,-0.57 2.03,0.06 4.06,0.11 6.1,0.17 1.94,0.34 3.88,0.68 5.83,1.01 1.84,0.64 3.68,1.27 5.51,1.91 11.7,6.79 7.57,14.02 -3.5,7.6 -1.37,-0.48 -2.74,-0.96 -4.1,-1.44 -1.53,-0.26 -3.05,-0.53 -4.57,-0.79 -1.67,-0.05 -3.34,-0.1 -5.01,-0.15 -1.79,0.16 -3.59,0.33 -5.38,0.49 -1.9,0.37 -3.8,0.74 -5.7,1.11 -1.98,0.57 -3.96,1.13 -5.95,1.7 -2.08,0.76 -4.15,1.52 -6.23,2.28 -1,0.37 -1.99,0.75 -2.99,1.12 -1.07,0.34 -2.13,0.69 -3.18,1.04 -1.09,0.3 -2.18,0.6 -3.26,0.9 -1.11,0.25 -2.22,0.51 -3.33,0.76 -1.13,0.2 -2.26,0.4 -3.38,0.6 -1.14,0.15 -2.29,0.3 -3.43,0.45 -1.16,0.09 -2.31,0.19 -3.46,0.3 -1.17,0.04 -2.34,0.08 -3.5,0.12 -1.17,-0.02 -2.33,-0.04 -3.5,-0.06 -1.17,-0.08 -2.34,-0.16 -3.51,-0.24 -1.17,-0.15 -2.33,-0.29 -3.5,-0.43 -1.16,-0.21 -2.33,-0.42 -3.49,-0.63 -1.15,-0.28 -2.3,-0.57 -3.45,-0.85 -1.13,-0.35 -2.27,-0.7 -3.4,-1.04 -1.12,-0.42 -2.25,-0.84 -3.36,-1.26 -10.26,-4.69 -6.59,-12.17 3.21,-7.69zm150.21 -71.8c0.82,0.31 1.65,0.62 2.48,0.94 0.83,0.27 1.67,0.54 2.53,0.78 0.85,0.21 1.71,0.42 2.56,0.64 0.88,0.15 1.75,0.3 2.62,0.46 0.88,0.11 1.76,0.22 2.64,0.33 0.89,0.07 1.77,0.12 2.66,0.18 0.88,0.03 1.77,0.03 2.67,0.05 0.88,-0.02 1.77,-0.07 2.66,-0.1 0.9,-0.08 1.78,-0.15 2.66,-0.21 0.89,-0.11 1.76,-0.24 2.64,-0.35 0.88,-0.15 1.74,-0.31 2.6,-0.47 0.86,-0.19 1.71,-0.39 2.57,-0.58 0.84,-0.23 1.68,-0.46 2.51,-0.69 0.82,-0.26 1.63,-0.53 2.45,-0.79 0.82,-0.32 1.65,-0.62 2.48,-0.94 1.89,-0.69 3.79,-1.38 5.68,-2.08 1.9,-0.53 3.81,-1.08 5.72,-1.62 1.86,-0.36 3.73,-0.72 5.6,-1.08 1.82,-0.17 3.65,-0.33 5.46,-0.5 1.77,0.06 3.54,0.1 5.31,0.15 1.68,0.29 3.36,0.6 5.05,0.87 1.61,0.56 3.19,1.11 4.79,1.66 10.15,5.9 6.57,12.17 -3.04,6.59 -1.18,-0.42 -2.38,-0.81 -3.56,-1.24 -1.33,-0.23 -2.64,-0.46 -3.96,-0.68 -1.46,-0.05 -2.91,-0.09 -4.36,-0.12 -1.56,0.13 -3.11,0.27 -4.67,0.42 -1.65,0.32 -3.3,0.63 -4.96,0.96 -1.7,0.48 -3.42,0.98 -5.15,1.47 -1.8,0.66 -3.6,1.32 -5.4,1.98 -0.86,0.32 -1.73,0.65 -2.59,0.98 -0.92,0.3 -1.85,0.6 -2.76,0.89 -0.94,0.27 -1.9,0.52 -2.83,0.78 -0.97,0.22 -1.92,0.44 -2.89,0.67 -0.98,0.17 -1.95,0.34 -2.93,0.51 -0.99,0.14 -1.99,0.26 -2.98,0.4 -0.99,0.08 -2,0.16 -3,0.25 -1.01,0.03 -2.02,0.06 -3.02,0.1 -1.03,-0.02 -2.04,-0.04 -3.05,-0.05 -1.01,-0.07 -2.04,-0.15 -3.05,-0.22 -1.02,-0.12 -2.04,-0.25 -3.03,-0.37 -1.02,-0.18 -2.03,-0.37 -3.03,-0.54 -1.01,-0.25 -2,-0.5 -3,-0.74 -0.98,-0.31 -1.96,-0.61 -2.94,-0.9 -0.98,-0.38 -1.96,-0.73 -2.92,-1.09 -8.91,-4.07 -5.73,-10.56 2.77,-6.68zm-783.24 96.41c0.95,0.36 1.9,0.72 2.85,1.09 0.97,0.3 1.95,0.6 2.91,0.89 0.98,0.24 1.98,0.48 2.96,0.72 1.01,0.18 2.01,0.36 3.02,0.54 1.01,0.13 2.03,0.25 3.04,0.38 1.02,0.07 2.04,0.14 3.07,0.21 1.02,0.02 2.04,0.03 3.07,0.06 1.02,-0.04 2.05,-0.07 3.08,-0.11 1.02,-0.09 2.04,-0.17 3.07,-0.25 1.02,-0.14 2.03,-0.27 3.05,-0.4 1,-0.18 2,-0.36 3,-0.53 0.98,-0.23 1.97,-0.45 2.96,-0.68 0.96,-0.27 1.93,-0.53 2.9,-0.8 0.94,-0.31 1.88,-0.62 2.82,-0.92 0.95,-0.36 1.9,-0.71 2.85,-1.07 2.18,-0.8 4.37,-1.6 6.55,-2.4 2.19,-0.62 4.38,-1.25 6.58,-1.87 2.15,-0.42 4.31,-0.84 6.46,-1.26 2.1,-0.19 4.2,-0.38 6.3,-0.57 2.03,0.06 4.06,0.11 6.1,0.17 1.94,0.34 3.88,0.68 5.83,1.01 1.84,0.64 3.68,1.28 5.51,1.91 11.7,6.79 7.57,14.02 -3.5,7.6 -1.37,-0.48 -2.74,-0.96 -4.1,-1.44 -1.53,-0.26 -3.05,-0.53 -4.57,-0.79 -1.67,-0.05 -3.34,-0.1 -5.01,-0.14 -1.8,0.16 -3.59,0.32 -5.39,0.48 -1.9,0.37 -3.8,0.74 -5.7,1.11 -1.98,0.57 -3.96,1.13 -5.95,1.7 -2.08,0.76 -4.15,1.52 -6.23,2.28 -1,0.37 -1.99,0.75 -2.99,1.12 -1.07,0.34 -2.13,0.69 -3.18,1.04 -1.09,0.3 -2.18,0.6 -3.26,0.9 -1.11,0.25 -2.22,0.51 -3.33,0.76 -1.13,0.2 -2.26,0.4 -3.38,0.6 -1.14,0.15 -2.29,0.3 -3.43,0.45 -1.16,0.1 -2.31,0.2 -3.46,0.3 -1.17,0.04 -2.34,0.08 -3.5,0.12 -1.17,-0.02 -2.33,-0.04 -3.5,-0.06 -1.17,-0.08 -2.34,-0.16 -3.51,-0.24 -1.17,-0.15 -2.33,-0.29 -3.5,-0.43 -1.16,-0.21 -2.33,-0.42 -3.49,-0.63 -1.15,-0.28 -2.3,-0.57 -3.45,-0.85 -1.13,-0.35 -2.27,-0.7 -3.4,-1.04 -1.12,-0.42 -2.25,-0.84 -3.36,-1.26 -10.26,-4.68 -6.59,-12.17 3.21,-7.69zm511.67 43.9c0.95,0.36 1.9,0.72 2.85,1.09 0.97,0.3 1.95,0.6 2.92,0.9 0.98,0.24 1.97,0.48 2.96,0.72 1.01,0.18 2.01,0.36 3.02,0.54 1.02,0.12 2.03,0.25 3.04,0.38 1.02,0.07 2.04,0.14 3.07,0.21 1.02,0.02 2.04,0.03 3.07,0.05 1.02,-0.04 2.05,-0.07 3.07,-0.11 1.02,-0.09 2.04,-0.17 3.07,-0.25 1.01,-0.14 2.03,-0.27 3.04,-0.4 1,-0.18 2,-0.36 3,-0.54 0.98,-0.23 1.97,-0.45 2.96,-0.68 0.96,-0.26 1.93,-0.53 2.9,-0.8 0.94,-0.31 1.88,-0.62 2.83,-0.92 0.95,-0.36 1.89,-0.71 2.85,-1.07 2.18,-0.8 4.36,-1.6 6.55,-2.4 2.19,-0.62 4.38,-1.25 6.58,-1.87 2.15,-0.42 4.3,-0.84 6.46,-1.26 2.1,-0.19 4.2,-0.38 6.3,-0.57 2.03,0.06 4.06,0.11 6.1,0.17 1.94,0.34 3.89,0.68 5.83,1.02 1.84,0.64 3.67,1.27 5.51,1.91 11.7,6.79 7.57,14.02 -3.5,7.6 -1.37,-0.48 -2.74,-0.96 -4.1,-1.44 -1.53,-0.27 -3.05,-0.53 -4.57,-0.79 -1.67,-0.05 -3.34,-0.1 -5.01,-0.15 -1.8,0.16 -3.59,0.32 -5.38,0.49 -1.9,0.37 -3.8,0.74 -5.7,1.11 -1.98,0.57 -3.96,1.13 -5.95,1.69 -2.08,0.76 -4.15,1.52 -6.22,2.28 -1,0.37 -1.99,0.75 -2.99,1.12 -1.06,0.34 -2.12,0.69 -3.18,1.04 -1.09,0.3 -2.18,0.6 -3.26,0.9 -1.12,0.25 -2.22,0.51 -3.33,0.76 -1.13,0.2 -2.26,0.4 -3.38,0.6 -1.14,0.15 -2.28,0.3 -3.43,0.45 -1.16,0.1 -2.31,0.2 -3.46,0.3 -1.17,0.04 -2.34,0.08 -3.5,0.12 -1.17,-0.02 -2.34,-0.04 -3.5,-0.06 -1.17,-0.08 -2.34,-0.16 -3.5,-0.24 -1.17,-0.15 -2.34,-0.29 -3.5,-0.44 -1.16,-0.21 -2.33,-0.42 -3.49,-0.63 -1.15,-0.28 -2.3,-0.56 -3.45,-0.85 -1.13,-0.35 -2.27,-0.7 -3.4,-1.04 -1.12,-0.42 -2.24,-0.85 -3.36,-1.26 -10.26,-4.68 -6.59,-12.17 3.21,-7.69zm-424.9 -4.12c0.95,0.36 1.9,0.72 2.85,1.09 0.97,0.3 1.95,0.6 2.92,0.9 0.98,0.24 1.98,0.48 2.96,0.72 1.01,0.18 2.01,0.36 3.02,0.54 1.01,0.12 2.03,0.25 3.04,0.38 1.02,0.07 2.04,0.14 3.07,0.21 1.02,0.02 2.04,0.03 3.07,0.06 1.02,-0.04 2.05,-0.07 3.08,-0.11 1.02,-0.09 2.04,-0.17 3.07,-0.25 1.02,-0.14 2.03,-0.27 3.05,-0.4 1,-0.18 2,-0.36 3,-0.53 0.98,-0.23 1.97,-0.45 2.96,-0.68 0.96,-0.27 1.93,-0.53 2.9,-0.8 0.94,-0.31 1.88,-0.62 2.82,-0.92 0.95,-0.36 1.9,-0.71 2.85,-1.07 2.18,-0.8 4.37,-1.6 6.55,-2.4 2.19,-0.62 4.38,-1.25 6.58,-1.87 2.15,-0.42 4.31,-0.84 6.46,-1.26 2.1,-0.19 4.2,-0.38 6.3,-0.57 2.03,0.06 4.06,0.11 6.1,0.17 1.94,0.34 3.88,0.68 5.83,1.01 1.84,0.64 3.68,1.28 5.51,1.91 11.7,6.79 7.57,14.02 -3.5,7.6 -1.37,-0.48 -2.74,-0.96 -4.1,-1.44 -1.53,-0.26 -3.05,-0.53 -4.57,-0.79 -1.67,-0.05 -3.34,-0.1 -5.01,-0.15 -1.79,0.16 -3.59,0.33 -5.38,0.49 -1.9,0.37 -3.8,0.74 -5.7,1.11 -1.98,0.57 -3.96,1.13 -5.95,1.7 -2.08,0.76 -4.15,1.52 -6.23,2.28 -1,0.37 -1.99,0.75 -2.99,1.12 -1.07,0.34 -2.13,0.69 -3.18,1.04 -1.09,0.3 -2.18,0.6 -3.26,0.9 -1.11,0.25 -2.22,0.51 -3.33,0.76 -1.13,0.2 -2.26,0.4 -3.38,0.6 -1.14,0.15 -2.29,0.3 -3.43,0.45 -1.16,0.09 -2.31,0.2 -3.46,0.3 -1.17,0.04 -2.33,0.08 -3.5,0.12 -1.17,-0.02 -2.33,-0.04 -3.5,-0.06 -1.17,-0.08 -2.34,-0.16 -3.51,-0.24 -1.17,-0.15 -2.34,-0.29 -3.5,-0.43 -1.16,-0.21 -2.33,-0.42 -3.49,-0.63 -1.15,-0.28 -2.3,-0.57 -3.45,-0.85 -1.13,-0.35 -2.27,-0.7 -3.41,-1.04 -1.12,-0.42 -2.24,-0.84 -3.36,-1.26 -10.25,-4.69 -6.59,-12.17 3.21,-7.69zm569.49 -21.84c0.95,0.36 1.9,0.72 2.85,1.09 0.97,0.3 1.95,0.6 2.92,0.9 0.98,0.24 1.97,0.48 2.96,0.72 1.01,0.18 2.01,0.36 3.02,0.54 1.02,0.12 2.03,0.25 3.04,0.38 1.02,0.07 2.04,0.14 3.07,0.21 1.02,0.02 2.04,0.03 3.07,0.05 1.02,-0.04 2.05,-0.07 3.07,-0.11 1.02,-0.09 2.04,-0.17 3.07,-0.25 1.01,-0.14 2.03,-0.27 3.04,-0.4 1,-0.18 2,-0.36 3,-0.54 0.98,-0.23 1.97,-0.45 2.96,-0.68 0.96,-0.26 1.93,-0.53 2.9,-0.8 0.94,-0.31 1.88,-0.62 2.82,-0.92 0.95,-0.36 1.9,-0.71 2.85,-1.07 2.18,-0.8 4.36,-1.6 6.55,-2.4 2.19,-0.62 4.38,-1.25 6.58,-1.87 2.15,-0.42 4.3,-0.84 6.46,-1.26 2.1,-0.19 4.2,-0.38 6.3,-0.57 2.03,0.06 4.06,0.12 6.1,0.17 1.94,0.34 3.89,0.68 5.83,1.02 1.84,0.64 3.67,1.27 5.51,1.91 11.7,6.79 7.57,14.02 -3.5,7.6 -1.37,-0.48 -2.74,-0.96 -4.1,-1.44 -1.53,-0.27 -3.05,-0.53 -4.57,-0.79 -1.67,-0.05 -3.34,-0.1 -5.01,-0.15 -1.8,0.16 -3.59,0.32 -5.39,0.48 -1.9,0.37 -3.8,0.74 -5.7,1.11 -1.98,0.57 -3.96,1.13 -5.95,1.7 -2.08,0.76 -4.15,1.52 -6.23,2.28 -1,0.38 -1.99,0.75 -2.99,1.12 -1.07,0.34 -2.13,0.69 -3.18,1.04 -1.09,0.3 -2.17,0.6 -3.26,0.9 -1.12,0.25 -2.22,0.51 -3.33,0.76 -1.13,0.2 -2.26,0.4 -3.38,0.6 -1.14,0.15 -2.28,0.3 -3.43,0.45 -1.16,0.1 -2.31,0.2 -3.46,0.3 -1.17,0.04 -2.34,0.08 -3.5,0.12 -1.17,-0.02 -2.34,-0.04 -3.5,-0.06 -1.17,-0.08 -2.34,-0.16 -3.51,-0.24 -1.17,-0.15 -2.33,-0.29 -3.5,-0.44 -1.16,-0.21 -2.33,-0.42 -3.49,-0.63 -1.15,-0.28 -2.3,-0.57 -3.45,-0.85 -1.13,-0.35 -2.27,-0.7 -3.4,-1.04 -1.12,-0.43 -2.24,-0.85 -3.36,-1.26 -10.26,-4.68 -6.59,-12.17 3.21,-7.69zm-322.06 36.73c0.94,0.36 1.9,0.72 2.85,1.09 0.97,0.3 1.95,0.6 2.92,0.9 0.98,0.24 1.97,0.48 2.96,0.72 1.01,0.18 2.01,0.36 3.02,0.54 1.02,0.12 2.03,0.25 3.04,0.38 1.02,0.07 2.04,0.14 3.07,0.21 1.02,0.02 2.04,0.03 3.07,0.06 1.02,-0.04 2.05,-0.07 3.08,-0.11 1.02,-0.09 2.04,-0.17 3.07,-0.25 1.01,-0.14 2.03,-0.27 3.04,-0.4 1,-0.18 2,-0.36 3,-0.53 0.98,-0.23 1.97,-0.45 2.96,-0.68 0.96,-0.27 1.93,-0.53 2.9,-0.8 0.94,-0.31 1.88,-0.62 2.83,-0.92 0.95,-0.36 1.9,-0.71 2.85,-1.07 2.18,-0.8 4.36,-1.6 6.55,-2.4 2.19,-0.62 4.38,-1.25 6.58,-1.87 2.15,-0.42 4.3,-0.84 6.46,-1.26 2.1,-0.19 4.19,-0.38 6.3,-0.57 2.03,0.06 4.06,0.11 6.1,0.17 1.94,0.34 3.89,0.68 5.83,1.01 1.84,0.64 3.67,1.28 5.51,1.91 11.7,6.79 7.57,14.02 -3.5,7.6 -1.37,-0.48 -2.74,-0.96 -4.1,-1.44 -1.53,-0.26 -3.05,-0.53 -4.57,-0.79 -1.67,-0.05 -3.34,-0.1 -5.01,-0.15 -1.8,0.16 -3.59,0.33 -5.38,0.49 -1.9,0.37 -3.8,0.74 -5.7,1.11 -1.98,0.57 -3.96,1.13 -5.95,1.7 -2.08,0.76 -4.15,1.52 -6.22,2.28 -1,0.37 -1.99,0.75 -2.99,1.12 -1.06,0.34 -2.12,0.69 -3.18,1.04 -1.09,0.3 -2.18,0.6 -3.26,0.9 -1.12,0.25 -2.22,0.51 -3.33,0.76 -1.13,0.2 -2.26,0.4 -3.38,0.6 -1.14,0.15 -2.28,0.3 -3.43,0.45 -1.16,0.09 -2.31,0.2 -3.46,0.3 -1.17,0.04 -2.34,0.08 -3.5,0.12 -1.17,-0.02 -2.34,-0.04 -3.5,-0.06 -1.17,-0.08 -2.34,-0.16 -3.5,-0.24 -1.17,-0.15 -2.34,-0.29 -3.5,-0.43 -1.17,-0.21 -2.33,-0.42 -3.49,-0.63 -1.15,-0.28 -2.3,-0.57 -3.45,-0.85 -1.13,-0.35 -2.27,-0.7 -3.4,-1.04 -1.12,-0.42 -2.24,-0.84 -3.36,-1.26 -10.26,-4.69 -6.59,-12.17 3.21,-7.69zm-247.5 22.99c0.95,0.36 1.9,0.72 2.85,1.09 0.97,0.3 1.95,0.6 2.92,0.9 0.98,0.24 1.97,0.48 2.96,0.72 1.01,0.18 2.01,0.36 3.02,0.54 1.02,0.12 2.03,0.25 3.04,0.38 1.02,0.07 2.04,0.14 3.07,0.21 1.02,0.02 2.04,0.03 3.07,0.06 1.02,-0.04 2.05,-0.07 3.07,-0.11 1.02,-0.09 2.04,-0.17 3.07,-0.25 1.01,-0.14 2.03,-0.27 3.04,-0.4 1,-0.18 2,-0.36 3,-0.53 0.98,-0.23 1.97,-0.45 2.96,-0.68 0.96,-0.27 1.93,-0.53 2.9,-0.8 0.94,-0.31 1.88,-0.62 2.82,-0.92 0.95,-0.36 1.9,-0.71 2.85,-1.07 2.18,-0.8 4.36,-1.6 6.55,-2.4 2.19,-0.62 4.38,-1.25 6.58,-1.87 2.15,-0.42 4.3,-0.84 6.46,-1.26 2.1,-0.19 4.2,-0.38 6.3,-0.57 2.03,0.06 4.06,0.11 6.1,0.17 1.94,0.34 3.89,0.68 5.83,1.01 1.84,0.64 3.67,1.28 5.51,1.91 11.7,6.79 7.57,14.02 -3.5,7.6 -1.37,-0.48 -2.74,-0.96 -4.1,-1.44 -1.53,-0.26 -3.05,-0.53 -4.57,-0.79 -1.67,-0.05 -3.34,-0.1 -5.01,-0.15 -1.8,0.16 -3.59,0.33 -5.39,0.49 -1.9,0.37 -3.8,0.74 -5.7,1.11 -1.98,0.57 -3.96,1.13 -5.95,1.7 -2.08,0.76 -4.15,1.52 -6.23,2.28 -1,0.37 -1.99,0.75 -2.99,1.12 -1.07,0.34 -2.13,0.69 -3.18,1.04 -1.09,0.3 -2.17,0.6 -3.26,0.9 -1.11,0.25 -2.22,0.51 -3.33,0.76 -1.13,0.2 -2.26,0.4 -3.38,0.6 -1.14,0.15 -2.28,0.3 -3.43,0.45 -1.16,0.09 -2.31,0.2 -3.46,0.3 -1.17,0.04 -2.34,0.08 -3.5,0.12 -1.17,-0.02 -2.34,-0.04 -3.5,-0.06 -1.17,-0.08 -2.34,-0.16 -3.51,-0.24 -1.17,-0.15 -2.33,-0.29 -3.5,-0.43 -1.16,-0.21 -2.33,-0.42 -3.49,-0.63 -1.15,-0.28 -2.3,-0.57 -3.45,-0.85 -1.13,-0.35 -2.27,-0.7 -3.4,-1.04 -1.12,-0.42 -2.24,-0.84 -3.36,-1.26 -10.26,-4.69 -6.59,-12.17 3.21,-7.69zm-233.71 -194.83c0.95,0.36 1.9,0.72 2.85,1.09 0.97,0.3 1.95,0.6 2.92,0.9 0.98,0.24 1.98,0.48 2.96,0.72 1.01,0.18 2.01,0.36 3.02,0.55 1.01,0.12 2.03,0.25 3.04,0.38 1.02,0.07 2.04,0.14 3.07,0.21 1.02,0.02 2.04,0.03 3.07,0.05 1.02,-0.04 2.05,-0.07 3.08,-0.11 1.02,-0.09 2.04,-0.17 3.07,-0.25 1.02,-0.14 2.03,-0.27 3.05,-0.4 1,-0.18 2,-0.36 3,-0.53 0.98,-0.23 1.97,-0.45 2.96,-0.68 0.97,-0.27 1.93,-0.53 2.9,-0.8 0.94,-0.31 1.88,-0.62 2.82,-0.92 0.95,-0.36 1.9,-0.71 2.85,-1.07 2.18,-0.8 4.37,-1.6 6.55,-2.4 2.19,-0.62 4.38,-1.25 6.58,-1.87 2.15,-0.42 4.31,-0.84 6.46,-1.26 2.1,-0.19 4.2,-0.38 6.3,-0.57 2.03,0.06 4.06,0.12 6.1,0.17 1.94,0.34 3.88,0.68 5.83,1.01 1.84,0.64 3.67,1.28 5.51,1.91 11.7,6.79 7.57,14.02 -3.5,7.59 -1.37,-0.48 -2.74,-0.96 -4.11,-1.44 -1.52,-0.27 -3.05,-0.53 -4.57,-0.79 -1.67,-0.05 -3.34,-0.1 -5.01,-0.15 -1.79,0.16 -3.59,0.32 -5.38,0.48 -1.9,0.37 -3.8,0.74 -5.7,1.11 -1.98,0.57 -3.96,1.13 -5.94,1.7 -2.08,0.76 -4.15,1.52 -6.23,2.28 -1,0.38 -1.99,0.75 -2.99,1.12 -1.06,0.34 -2.12,0.69 -3.18,1.04 -1.09,0.3 -2.18,0.6 -3.26,0.9 -1.11,0.25 -2.22,0.51 -3.33,0.76 -1.13,0.2 -2.26,0.4 -3.38,0.6 -1.14,0.15 -2.29,0.3 -3.43,0.45 -1.15,0.1 -2.31,0.2 -3.46,0.3 -1.17,0.04 -2.33,0.08 -3.5,0.12 -1.17,-0.02 -2.33,-0.04 -3.5,-0.06 -1.17,-0.08 -2.34,-0.16 -3.51,-0.24 -1.17,-0.14 -2.34,-0.29 -3.5,-0.43 -1.17,-0.21 -2.33,-0.42 -3.49,-0.63 -1.15,-0.28 -2.3,-0.57 -3.44,-0.85 -1.13,-0.35 -2.27,-0.7 -3.41,-1.04 -1.12,-0.43 -2.24,-0.85 -3.36,-1.26 -10.25,-4.68 -6.59,-12.17 3.21,-7.69zm419.6 156.71c0.95,0.36 1.9,0.72 2.85,1.09 0.97,0.3 1.95,0.6 2.92,0.89 0.98,0.24 1.97,0.48 2.96,0.72 1.01,0.18 2.01,0.36 3.02,0.54 1.02,0.13 2.03,0.25 3.04,0.38 1.02,0.07 2.04,0.14 3.07,0.21 1.02,0.02 2.04,0.03 3.07,0.06 1.02,-0.04 2.05,-0.07 3.07,-0.11 1.02,-0.09 2.04,-0.17 3.07,-0.25 1.01,-0.14 2.03,-0.27 3.04,-0.4 1,-0.18 2,-0.36 3,-0.53 0.98,-0.23 1.97,-0.45 2.96,-0.68 0.96,-0.27 1.93,-0.53 2.9,-0.8 0.94,-0.31 1.88,-0.62 2.83,-0.92 0.95,-0.36 1.9,-0.71 2.85,-1.07 2.18,-0.8 4.36,-1.6 6.55,-2.4 2.19,-0.62 4.38,-1.25 6.58,-1.87 2.15,-0.42 4.3,-0.84 6.46,-1.26 2.1,-0.19 4.2,-0.38 6.3,-0.57 2.03,0.06 4.06,0.11 6.1,0.17 1.94,0.34 3.89,0.68 5.83,1.01 1.84,0.64 3.67,1.28 5.51,1.91 11.7,6.79 7.57,14.02 -3.5,7.6 -1.37,-0.48 -2.74,-0.96 -4.1,-1.44 -1.53,-0.26 -3.05,-0.53 -4.57,-0.79 -1.67,-0.05 -3.34,-0.1 -5.01,-0.14 -1.8,0.16 -3.59,0.32 -5.38,0.48 -1.9,0.37 -3.8,0.74 -5.7,1.11 -1.98,0.57 -3.96,1.13 -5.95,1.7 -2.08,0.76 -4.15,1.52 -6.22,2.28 -1,0.37 -1.99,0.75 -2.99,1.12 -1.06,0.34 -2.12,0.69 -3.18,1.04 -1.09,0.3 -2.18,0.6 -3.26,0.9 -1.12,0.25 -2.22,0.51 -3.33,0.76 -1.13,0.2 -2.26,0.4 -3.38,0.6 -1.14,0.15 -2.28,0.3 -3.43,0.45 -1.16,0.1 -2.31,0.2 -3.46,0.3 -1.17,0.04 -2.34,0.08 -3.5,0.12 -1.17,-0.02 -2.34,-0.04 -3.5,-0.07 -1.17,-0.08 -2.34,-0.16 -3.5,-0.24 -1.17,-0.15 -2.34,-0.29 -3.5,-0.43 -1.16,-0.21 -2.32,-0.42 -3.49,-0.63 -1.15,-0.28 -2.3,-0.57 -3.45,-0.85 -1.13,-0.35 -2.27,-0.7 -3.4,-1.04 -1.12,-0.42 -2.24,-0.84 -3.36,-1.26 -10.26,-4.69 -6.59,-12.17 3.21,-7.69zm235.29 -36.78c0.95,0.36 1.9,0.72 2.85,1.09 0.97,0.3 1.95,0.6 2.92,0.9 0.98,0.24 1.97,0.48 2.96,0.72 1,0.18 2.01,0.36 3.02,0.54 1.01,0.12 2.03,0.25 3.04,0.38 1.02,0.07 2.04,0.14 3.07,0.21 1.02,0.02 2.04,0.03 3.07,0.05 1.02,-0.04 2.05,-0.07 3.08,-0.11 1.02,-0.09 2.04,-0.17 3.07,-0.25 1.01,-0.14 2.03,-0.27 3.04,-0.4 1,-0.18 2,-0.36 3,-0.54 0.98,-0.23 1.97,-0.45 2.96,-0.68 0.97,-0.26 1.93,-0.53 2.9,-0.8 0.94,-0.31 1.88,-0.62 2.83,-0.92 0.95,-0.36 1.9,-0.71 2.85,-1.07 2.18,-0.8 4.36,-1.6 6.55,-2.4 2.19,-0.62 4.38,-1.25 6.58,-1.87 2.15,-0.42 4.31,-0.84 6.46,-1.26 2.1,-0.19 4.19,-0.38 6.3,-0.57 2.03,0.06 4.06,0.11 6.1,0.17 1.94,0.34 3.88,0.68 5.83,1.01 1.84,0.64 3.67,1.27 5.51,1.91 11.7,6.79 7.57,14.02 -3.49,7.6 -1.37,-0.48 -2.74,-0.96 -4.11,-1.44 -1.53,-0.26 -3.05,-0.53 -4.57,-0.79 -1.67,-0.05 -3.34,-0.1 -5.01,-0.15 -1.8,0.16 -3.59,0.33 -5.38,0.49 -1.9,0.37 -3.8,0.74 -5.7,1.11 -1.98,0.57 -3.96,1.13 -5.95,1.7 -2.08,0.76 -4.15,1.52 -6.22,2.28 -1,0.37 -1.99,0.75 -2.99,1.12 -1.06,0.34 -2.12,0.69 -3.18,1.04 -1.09,0.3 -2.18,0.6 -3.26,0.9 -1.11,0.25 -2.22,0.51 -3.33,0.76 -1.13,0.2 -2.26,0.4 -3.38,0.6 -1.14,0.15 -2.29,0.3 -3.43,0.45 -1.16,0.09 -2.31,0.19 -3.46,0.3 -1.17,0.04 -2.33,0.08 -3.5,0.12 -1.17,-0.02 -2.34,-0.04 -3.5,-0.06 -1.17,-0.08 -2.34,-0.16 -3.51,-0.24 -1.17,-0.15 -2.34,-0.29 -3.5,-0.43 -1.17,-0.21 -2.33,-0.42 -3.49,-0.63 -1.15,-0.28 -2.3,-0.57 -3.44,-0.85 -1.14,-0.35 -2.27,-0.7 -3.41,-1.04 -1.12,-0.42 -2.24,-0.84 -3.36,-1.26 -10.26,-4.69 -6.59,-12.17 3.21,-7.69zm21.74 75.71c0.95,0.36 1.9,0.72 2.85,1.09 0.97,0.3 1.95,0.6 2.91,0.9 0.98,0.24 1.98,0.48 2.96,0.72 1.01,0.18 2.01,0.36 3.02,0.54 1.01,0.12 2.03,0.25 3.04,0.38 1.02,0.07 2.04,0.14 3.07,0.21 1.02,0.02 2.04,0.03 3.07,0.05 1.02,-0.04 2.05,-0.07 3.08,-0.11 1.02,-0.09 2.04,-0.17 3.07,-0.25 1.02,-0.14 2.03,-0.27 3.05,-0.4 1,-0.18 2,-0.36 3,-0.54 0.98,-0.23 1.97,-0.45 2.96,-0.68 0.96,-0.26 1.93,-0.53 2.9,-0.8 0.94,-0.31 1.88,-0.62 2.82,-0.92 0.95,-0.36 1.9,-0.71 2.85,-1.07 2.18,-0.8 4.37,-1.6 6.55,-2.4 2.19,-0.62 4.38,-1.25 6.58,-1.87 2.15,-0.42 4.31,-0.84 6.46,-1.26 2.1,-0.19 4.2,-0.38 6.3,-0.57 2.03,0.06 4.06,0.12 6.1,0.17 1.94,0.34 3.89,0.68 5.83,1.02 1.84,0.64 3.68,1.27 5.51,1.91 11.7,6.79 7.57,14.02 -3.5,7.6 -1.37,-0.48 -2.74,-0.96 -4.1,-1.44 -1.53,-0.27 -3.05,-0.53 -4.57,-0.79 -1.67,-0.05 -3.34,-0.1 -5.01,-0.15 -1.8,0.16 -3.59,0.32 -5.39,0.48 -1.9,0.37 -3.8,0.74 -5.7,1.11 -1.98,0.57 -3.96,1.13 -5.95,1.7 -2.08,0.76 -4.15,1.52 -6.23,2.28 -1,0.38 -1.99,0.75 -2.99,1.12 -1.07,0.34 -2.13,0.69 -3.18,1.04 -1.09,0.3 -2.18,0.6 -3.26,0.9 -1.11,0.25 -2.22,0.51 -3.33,0.76 -1.13,0.2 -2.26,0.4 -3.38,0.6 -1.14,0.15 -2.29,0.3 -3.43,0.45 -1.16,0.1 -2.31,0.2 -3.46,0.3 -1.17,0.04 -2.34,0.08 -3.5,0.12 -1.17,-0.02 -2.34,-0.04 -3.5,-0.06 -1.17,-0.08 -2.34,-0.16 -3.51,-0.24 -1.17,-0.15 -2.33,-0.29 -3.5,-0.44 -1.16,-0.21 -2.33,-0.42 -3.49,-0.63 -1.15,-0.28 -2.3,-0.57 -3.45,-0.85 -1.13,-0.35 -2.27,-0.7 -3.4,-1.04 -1.12,-0.43 -2.25,-0.85 -3.36,-1.26 -10.26,-4.68 -6.59,-12.17 3.21,-7.69zm-595.48 -99.21c0.95,0.36 1.9,0.72 2.85,1.09 0.97,0.3 1.95,0.6 2.92,0.9 0.98,0.24 1.98,0.48 2.96,0.72 1.01,0.18 2.01,0.36 3.02,0.54 1.01,0.12 2.03,0.25 3.04,0.38 1.02,0.07 2.04,0.14 3.07,0.21 1.02,0.02 2.04,0.03 3.07,0.05 1.02,-0.04 2.05,-0.07 3.08,-0.11 1.02,-0.09 2.04,-0.17 3.07,-0.25 1.02,-0.14 2.03,-0.27 3.05,-0.4 1,-0.18 2,-0.36 3,-0.54 0.98,-0.23 1.97,-0.45 2.96,-0.68 0.97,-0.26 1.93,-0.53 2.9,-0.8 0.94,-0.31 1.88,-0.62 2.82,-0.92 0.95,-0.36 1.9,-0.71 2.85,-1.07 2.18,-0.8 4.37,-1.6 6.55,-2.4 2.19,-0.62 4.38,-1.25 6.58,-1.87 2.15,-0.42 4.31,-0.84 6.46,-1.26 2.1,-0.19 4.2,-0.38 6.3,-0.57 2.03,0.06 4.06,0.11 6.1,0.17 1.94,0.34 3.88,0.68 5.83,1.02 1.84,0.64 3.67,1.27 5.51,1.91 11.7,6.79 7.57,14.02 -3.5,7.6 -1.37,-0.48 -2.74,-0.96 -4.11,-1.44 -1.52,-0.27 -3.05,-0.53 -4.57,-0.79 -1.67,-0.05 -3.34,-0.1 -5.01,-0.15 -1.79,0.16 -3.59,0.32 -5.38,0.49 -1.9,0.37 -3.8,0.74 -5.7,1.11 -1.98,0.57 -3.96,1.13 -5.94,1.69 -2.08,0.76 -4.15,1.52 -6.23,2.28 -1,0.37 -1.99,0.75 -2.99,1.12 -1.06,0.34 -2.12,0.69 -3.18,1.04 -1.09,0.3 -2.18,0.6 -3.26,0.9 -1.11,0.25 -2.22,0.51 -3.33,0.76 -1.13,0.2 -2.26,0.4 -3.38,0.6 -1.14,0.15 -2.29,0.3 -3.43,0.45 -1.15,0.1 -2.31,0.2 -3.46,0.3 -1.17,0.04 -2.33,0.08 -3.5,0.12 -1.17,-0.02 -2.33,-0.04 -3.5,-0.06 -1.17,-0.08 -2.34,-0.16 -3.51,-0.24 -1.17,-0.15 -2.34,-0.29 -3.5,-0.44 -1.17,-0.21 -2.33,-0.42 -3.49,-0.63 -1.15,-0.28 -2.3,-0.56 -3.44,-0.85 -1.13,-0.35 -2.27,-0.7 -3.41,-1.04 -1.12,-0.42 -2.24,-0.85 -3.36,-1.26 -10.25,-4.68 -6.59,-12.17 3.21,-7.69zm-134.75 -69.3c0.76,0.29 1.54,0.58 2.3,0.88 0.79,0.25 1.59,0.48 2.38,0.73 0.8,0.2 1.59,0.39 2.39,0.59 0.82,0.15 1.64,0.29 2.45,0.43 0.83,0.11 1.65,0.21 2.47,0.31 0.82,0.06 1.66,0.11 2.48,0.17 0.84,0.01 1.67,0.03 2.5,0.04 0.82,-0.04 1.66,-0.06 2.5,-0.09 0.82,-0.07 1.65,-0.14 2.48,-0.21 0.82,-0.11 1.65,-0.22 2.48,-0.33 0.8,-0.15 1.62,-0.29 2.43,-0.44 0.8,-0.18 1.6,-0.36 2.4,-0.55 0.78,-0.21 1.56,-0.43 2.35,-0.64 0.76,-0.25 1.53,-0.5 2.28,-0.74 0.77,-0.29 1.54,-0.59 2.31,-0.88 1.77,-0.65 3.54,-1.29 5.31,-1.95 1.78,-0.5 3.56,-1 5.34,-1.51 1.74,-0.34 3.49,-0.68 5.24,-1.01 1.71,-0.15 3.4,-0.31 5.11,-0.47 1.65,0.05 3.29,0.1 4.94,0.13 1.58,0.29 3.16,0.55 4.74,0.82 1.48,0.52 2.98,1.03 4.46,1.56 9.49,5.5 6.15,11.37 -2.83,6.16 -1.11,-0.39 -2.22,-0.78 -3.33,-1.17 -1.23,-0.21 -2.48,-0.43 -3.71,-0.63 -1.35,-0.05 -2.71,-0.09 -4.07,-0.12 -1.45,0.12 -2.91,0.27 -4.37,0.39 -1.54,0.3 -3.08,0.6 -4.62,0.9 -1.61,0.46 -3.2,0.92 -4.82,1.38 -1.69,0.61 -3.37,1.23 -5.06,1.85 -0.8,0.3 -1.62,0.6 -2.42,0.91 -0.86,0.28 -1.72,0.56 -2.58,0.84 -0.89,0.25 -1.77,0.49 -2.66,0.74 -0.9,0.2 -1.8,0.4 -2.69,0.61 -0.92,0.16 -1.84,0.32 -2.75,0.49 -0.93,0.12 -1.85,0.24 -2.78,0.36 -0.94,0.07 -1.87,0.16 -2.81,0.24 -0.94,0.02 -1.9,0.07 -2.83,0.1 -0.96,-0.01 -1.9,-0.03 -2.85,-0.05 -0.95,-0.06 -1.89,-0.12 -2.85,-0.19 -0.94,-0.11 -1.9,-0.24 -2.83,-0.36 -0.94,-0.16 -1.89,-0.33 -2.83,-0.5 -0.94,-0.23 -1.86,-0.46 -2.79,-0.69 -0.91,-0.3 -1.85,-0.56 -2.76,-0.85 -0.91,-0.34 -1.82,-0.68 -2.73,-1.03 -8.31,-3.79 -5.33,-9.88 2.61,-6.23zm837.1 35.95c0.95,0.36 1.9,0.72 2.85,1.09 0.97,0.3 1.95,0.6 2.91,0.9 0.98,0.24 1.98,0.48 2.96,0.72 1.01,0.18 2.01,0.36 3.02,0.54 1.01,0.12 2.03,0.25 3.04,0.38 1.02,0.07 2.04,0.14 3.07,0.21 1.02,0.02 2.04,0.03 3.07,0.05 1.02,-0.04 2.05,-0.07 3.08,-0.11 1.02,-0.09 2.04,-0.17 3.07,-0.25 1.02,-0.14 2.03,-0.27 3.05,-0.4 1,-0.18 2,-0.36 3,-0.54 0.98,-0.23 1.97,-0.45 2.96,-0.68 0.96,-0.26 1.93,-0.53 2.9,-0.8 0.94,-0.31 1.88,-0.62 2.82,-0.92 0.95,-0.36 1.9,-0.71 2.85,-1.07 2.18,-0.8 4.37,-1.6 6.55,-2.4 2.19,-0.62 4.38,-1.25 6.58,-1.87 2.15,-0.42 4.31,-0.84 6.46,-1.26 2.1,-0.19 4.2,-0.38 6.3,-0.57 2.03,0.06 4.06,0.12 6.1,0.17 1.94,0.34 3.89,0.68 5.83,1.02 1.84,0.64 3.68,1.27 5.51,1.91 11.7,6.79 7.57,14.02 -3.5,7.6 -1.37,-0.48 -2.74,-0.96 -4.1,-1.44 -1.53,-0.27 -3.05,-0.53 -4.57,-0.79 -1.67,-0.05 -3.34,-0.1 -5.01,-0.15 -1.8,0.16 -3.59,0.32 -5.39,0.48 -1.9,0.37 -3.8,0.74 -5.7,1.11 -1.98,0.57 -3.96,1.13 -5.95,1.7 -2.08,0.76 -4.15,1.52 -6.23,2.28 -1,0.38 -1.99,0.75 -2.99,1.12 -1.07,0.34 -2.13,0.69 -3.18,1.04 -1.09,0.3 -2.18,0.6 -3.26,0.9 -1.11,0.25 -2.22,0.51 -3.33,0.76 -1.13,0.2 -2.26,0.4 -3.38,0.6 -1.14,0.15 -2.29,0.3 -3.43,0.45 -1.16,0.1 -2.31,0.2 -3.46,0.3 -1.17,0.04 -2.34,0.08 -3.5,0.12 -1.17,-0.02 -2.34,-0.04 -3.5,-0.06 -1.17,-0.08 -2.34,-0.16 -3.51,-0.24 -1.17,-0.15 -2.33,-0.29 -3.5,-0.44 -1.16,-0.21 -2.33,-0.42 -3.49,-0.63 -1.15,-0.28 -2.3,-0.57 -3.45,-0.85 -1.13,-0.35 -2.27,-0.7 -3.4,-1.04 -1.12,-0.43 -2.25,-0.85 -3.36,-1.26 -10.26,-4.68 -6.59,-12.17 3.21,-7.69zm38.47 -24.07c0.95,0.36 1.9,0.72 2.85,1.09 0.97,0.3 1.94,0.6 2.91,0.89 0.98,0.24 1.98,0.48 2.96,0.72 1.01,0.18 2.01,0.36 3.02,0.54 1.01,0.13 2.03,0.25 3.04,0.38 1.02,0.07 2.04,0.14 3.07,0.21 1.02,0.02 2.04,0.03 3.07,0.06 1.02,-0.04 2.05,-0.07 3.08,-0.11 1.02,-0.09 2.04,-0.17 3.07,-0.25 1.02,-0.14 2.03,-0.27 3.05,-0.4 1,-0.18 2,-0.36 3,-0.53 0.98,-0.23 1.97,-0.45 2.96,-0.68 0.96,-0.27 1.93,-0.53 2.9,-0.8 0.94,-0.31 1.88,-0.62 2.82,-0.92 0.95,-0.36 1.9,-0.71 2.85,-1.07 2.18,-0.8 4.37,-1.6 6.55,-2.4 2.19,-0.62 4.38,-1.25 6.58,-1.87 2.15,-0.42 4.31,-0.84 6.46,-1.26 2.1,-0.19 4.2,-0.38 6.3,-0.57 2.03,0.06 4.06,0.11 6.1,0.17 1.94,0.34 3.88,0.68 5.83,1.01 1.84,0.64 3.68,1.28 5.51,1.91 11.7,6.79 7.57,14.02 -3.5,7.6 -1.37,-0.48 -2.74,-0.96 -4.1,-1.44 -1.53,-0.26 -3.05,-0.53 -4.57,-0.79 -1.67,-0.05 -3.34,-0.1 -5.01,-0.14 -1.79,0.16 -3.59,0.32 -5.38,0.48 -1.9,0.37 -3.8,0.74 -5.7,1.11 -1.98,0.57 -3.96,1.13 -5.95,1.7 -2.08,0.76 -4.15,1.52 -6.23,2.28 -1,0.37 -1.99,0.75 -2.99,1.12 -1.07,0.34 -2.13,0.69 -3.18,1.04 -1.09,0.3 -2.18,0.6 -3.26,0.9 -1.11,0.25 -2.22,0.51 -3.33,0.76 -1.13,0.2 -2.26,0.4 -3.38,0.6 -1.14,0.15 -2.29,0.3 -3.43,0.45 -1.16,0.1 -2.31,0.2 -3.46,0.3 -1.17,0.04 -2.34,0.08 -3.5,0.12 -1.17,-0.02 -2.33,-0.04 -3.5,-0.07 -1.17,-0.08 -2.34,-0.16 -3.51,-0.24 -1.17,-0.15 -2.33,-0.29 -3.5,-0.43 -1.16,-0.21 -2.33,-0.42 -3.49,-0.63 -1.15,-0.28 -2.3,-0.57 -3.45,-0.85 -1.13,-0.35 -2.27,-0.7 -3.4,-1.04 -1.12,-0.42 -2.25,-0.84 -3.36,-1.26 -10.26,-4.69 -6.59,-12.17 3.21,-7.69zm-744.51 35.55c0.76,0.29 1.54,0.58 2.3,0.88 0.8,0.25 1.59,0.48 2.38,0.73 0.8,0.2 1.59,0.39 2.4,0.59 0.81,0.15 1.64,0.29 2.45,0.43 0.83,0.11 1.65,0.21 2.47,0.31 0.82,0.07 1.66,0.11 2.48,0.17 0.83,0.01 1.67,0.03 2.5,0.05 0.82,-0.04 1.66,-0.06 2.5,-0.09 0.82,-0.08 1.65,-0.14 2.48,-0.21 0.82,-0.11 1.64,-0.22 2.48,-0.33 0.8,-0.14 1.62,-0.29 2.43,-0.43 0.8,-0.18 1.6,-0.37 2.4,-0.55 0.78,-0.21 1.56,-0.43 2.35,-0.64 0.76,-0.25 1.53,-0.5 2.28,-0.75 0.77,-0.29 1.54,-0.58 2.31,-0.88 1.77,-0.65 3.54,-1.29 5.32,-1.95 1.78,-0.5 3.55,-1 5.33,-1.51 1.74,-0.34 3.5,-0.68 5.24,-1.01 1.71,-0.16 3.41,-0.31 5.11,-0.47 1.65,0.05 3.3,0.1 4.95,0.13 1.58,0.29 3.16,0.55 4.74,0.82 1.49,0.52 2.98,1.03 4.46,1.56 9.49,5.5 6.15,11.37 -2.83,6.16 -1.11,-0.39 -2.22,-0.78 -3.33,-1.17 -1.23,-0.21 -2.48,-0.43 -3.71,-0.63 -1.35,-0.05 -2.71,-0.09 -4.07,-0.12 -1.45,0.12 -2.91,0.27 -4.37,0.39 -1.54,0.3 -3.08,0.6 -4.62,0.9 -1.61,0.46 -3.2,0.91 -4.82,1.38 -1.69,0.61 -3.37,1.23 -5.05,1.85 -0.81,0.3 -1.62,0.6 -2.42,0.91 -0.86,0.28 -1.72,0.56 -2.58,0.84 -0.89,0.25 -1.77,0.49 -2.66,0.74 -0.9,0.2 -1.8,0.4 -2.69,0.61 -0.92,0.16 -1.84,0.32 -2.75,0.49 -0.93,0.12 -1.85,0.24 -2.77,0.37 -0.94,0.07 -1.87,0.16 -2.81,0.24 -0.94,0.02 -1.9,0.06 -2.83,0.1 -0.96,-0.01 -1.9,-0.03 -2.85,-0.05 -0.95,-0.06 -1.89,-0.12 -2.85,-0.19 -0.94,-0.11 -1.9,-0.24 -2.83,-0.36 -0.94,-0.16 -1.89,-0.33 -2.83,-0.5 -0.94,-0.23 -1.86,-0.46 -2.79,-0.69 -0.91,-0.3 -1.84,-0.56 -2.76,-0.85 -0.91,-0.34 -1.82,-0.68 -2.73,-1.03 -8.31,-3.79 -5.33,-9.88 2.61,-6.23zm810.92 35.42c0.95,0.36 1.9,0.72 2.85,1.09 0.97,0.3 1.95,0.6 2.92,0.9 0.98,0.24 1.97,0.48 2.96,0.72 1,0.18 2.01,0.36 3.02,0.55 1.01,0.12 2.03,0.25 3.04,0.38 1.02,0.07 2.04,0.14 3.07,0.21 1.02,0.02 2.04,0.03 3.07,0.05 1.02,-0.04 2.05,-0.07 3.08,-0.11 1.02,-0.09 2.04,-0.17 3.07,-0.25 1.02,-0.14 2.03,-0.27 3.05,-0.4 1,-0.18 2,-0.36 3,-0.54 0.98,-0.23 1.97,-0.45 2.96,-0.68 0.97,-0.27 1.93,-0.53 2.9,-0.8 0.94,-0.31 1.88,-0.62 2.82,-0.92 0.95,-0.36 1.9,-0.71 2.85,-1.07 2.18,-0.8 4.36,-1.6 6.55,-2.4 2.19,-0.62 4.38,-1.25 6.58,-1.87 2.15,-0.42 4.31,-0.84 6.46,-1.26 2.1,-0.19 4.2,-0.38 6.3,-0.57 2.03,0.06 4.06,0.12 6.1,0.17 1.94,0.34 3.88,0.68 5.83,1.01 1.84,0.64 3.67,1.28 5.51,1.91 11.7,6.79 7.57,14.02 -3.5,7.59 -1.37,-0.48 -2.74,-0.96 -4.11,-1.44 -1.52,-0.27 -3.05,-0.53 -4.57,-0.79 -1.67,-0.05 -3.34,-0.1 -5.01,-0.15 -1.79,0.16 -3.59,0.32 -5.38,0.48 -1.9,0.37 -3.8,0.74 -5.7,1.11 -1.98,0.57 -3.96,1.13 -5.95,1.7 -2.08,0.76 -4.15,1.52 -6.22,2.28 -1,0.38 -1.99,0.75 -2.99,1.12 -1.06,0.34 -2.12,0.69 -3.18,1.04 -1.09,0.3 -2.18,0.6 -3.26,0.9 -1.11,0.25 -2.22,0.51 -3.33,0.76 -1.13,0.2 -2.26,0.4 -3.38,0.6 -1.14,0.15 -2.29,0.3 -3.43,0.45 -1.15,0.1 -2.31,0.2 -3.46,0.3 -1.17,0.04 -2.33,0.08 -3.5,0.12 -1.17,-0.02 -2.33,-0.04 -3.5,-0.06 -1.17,-0.08 -2.34,-0.16 -3.51,-0.24 -1.17,-0.15 -2.34,-0.29 -3.5,-0.44 -1.17,-0.21 -2.33,-0.42 -3.49,-0.63 -1.15,-0.28 -2.3,-0.57 -3.44,-0.85 -1.13,-0.35 -2.27,-0.7 -3.41,-1.04 -1.12,-0.43 -2.24,-0.85 -3.36,-1.26 -10.25,-4.68 -6.59,-12.17 3.21,-7.69zm-839.4 -74.68c0.76,0.29 1.53,0.58 2.3,0.88 0.8,0.25 1.59,0.48 2.38,0.73 0.8,0.2 1.59,0.39 2.4,0.59 0.81,0.14 1.64,0.29 2.45,0.43 0.83,0.11 1.65,0.21 2.47,0.31 0.82,0.06 1.66,0.11 2.48,0.17 0.84,0.01 1.67,0.03 2.5,0.05 0.82,-0.04 1.66,-0.06 2.5,-0.09 0.82,-0.08 1.65,-0.14 2.48,-0.21 0.82,-0.11 1.64,-0.22 2.48,-0.33 0.8,-0.14 1.62,-0.29 2.43,-0.43 0.8,-0.18 1.61,-0.37 2.4,-0.55 0.78,-0.21 1.56,-0.43 2.35,-0.64 0.76,-0.25 1.53,-0.5 2.29,-0.75 0.77,-0.29 1.54,-0.58 2.31,-0.88 1.77,-0.65 3.54,-1.29 5.32,-1.95 1.78,-0.5 3.56,-1 5.33,-1.51 1.75,-0.34 3.5,-0.68 5.24,-1.01 1.71,-0.16 3.4,-0.31 5.11,-0.47 1.65,0.05 3.3,0.1 4.95,0.13 1.58,0.29 3.16,0.55 4.74,0.82 1.49,0.52 2.98,1.03 4.46,1.56 9.49,5.5 6.15,11.37 -2.83,6.16 -1.11,-0.39 -2.22,-0.78 -3.33,-1.17 -1.23,-0.21 -2.48,-0.43 -3.71,-0.63 -1.35,-0.05 -2.71,-0.09 -4.07,-0.12 -1.45,0.12 -2.91,0.27 -4.37,0.39 -1.54,0.3 -3.08,0.6 -4.62,0.9 -1.61,0.46 -3.2,0.91 -4.82,1.38 -1.69,0.61 -3.37,1.23 -5.05,1.85 -0.81,0.3 -1.62,0.6 -2.42,0.91 -0.86,0.28 -1.72,0.56 -2.58,0.84 -0.89,0.25 -1.77,0.49 -2.66,0.74 -0.9,0.2 -1.79,0.4 -2.69,0.61 -0.92,0.16 -1.84,0.32 -2.75,0.49 -0.93,0.12 -1.85,0.24 -2.77,0.37 -0.94,0.07 -1.87,0.16 -2.81,0.24 -0.94,0.02 -1.9,0.06 -2.83,0.1 -0.96,-0.01 -1.9,-0.03 -2.85,-0.05 -0.95,-0.06 -1.89,-0.12 -2.85,-0.19 -0.94,-0.11 -1.89,-0.24 -2.83,-0.36 -0.94,-0.16 -1.89,-0.33 -2.83,-0.5 -0.94,-0.23 -1.86,-0.46 -2.79,-0.69 -0.92,-0.3 -1.85,-0.56 -2.77,-0.85 -0.91,-0.34 -1.82,-0.68 -2.73,-1.03 -8.31,-3.79 -5.34,-9.88 2.61,-6.23zm-49.55 88.99c0.95,0.36 1.9,0.72 2.85,1.09 0.97,0.3 1.94,0.6 2.91,0.9 0.98,0.24 1.98,0.48 2.96,0.72 1.01,0.18 2.01,0.36 3.02,0.54 1.01,0.12 2.03,0.25 3.04,0.38 1.02,0.07 2.04,0.14 3.07,0.21 1.02,0.02 2.04,0.03 3.07,0.05 1.02,-0.04 2.05,-0.07 3.08,-0.11 1.02,-0.09 2.04,-0.17 3.07,-0.25 1.02,-0.14 2.03,-0.27 3.05,-0.4 1,-0.18 2,-0.36 3,-0.54 0.98,-0.23 1.97,-0.45 2.96,-0.68 0.96,-0.26 1.93,-0.53 2.9,-0.8 0.94,-0.31 1.88,-0.62 2.82,-0.92 0.95,-0.36 1.9,-0.71 2.85,-1.07 2.18,-0.8 4.37,-1.6 6.55,-2.4 2.19,-0.62 4.38,-1.25 6.58,-1.87 2.15,-0.42 4.31,-0.84 6.46,-1.26 2.1,-0.19 4.2,-0.38 6.3,-0.57 2.03,0.06 4.06,0.12 6.1,0.17 1.94,0.34 3.88,0.68 5.83,1.02 1.84,0.64 3.68,1.27 5.51,1.91 11.7,6.79 7.57,14.02 -3.5,7.6 -1.37,-0.48 -2.74,-0.96 -4.1,-1.44 -1.53,-0.27 -3.05,-0.53 -4.57,-0.79 -1.67,-0.05 -3.34,-0.1 -5.01,-0.15 -1.79,0.16 -3.59,0.32 -5.38,0.48 -1.9,0.37 -3.8,0.74 -5.7,1.11 -1.98,0.57 -3.96,1.13 -5.95,1.7 -2.08,0.76 -4.15,1.52 -6.23,2.28 -1,0.38 -1.99,0.75 -2.99,1.12 -1.07,0.34 -2.13,0.69 -3.18,1.04 -1.09,0.3 -2.18,0.6 -3.26,0.9 -1.11,0.25 -2.22,0.51 -3.33,0.76 -1.13,0.2 -2.26,0.4 -3.38,0.6 -1.14,0.15 -2.29,0.3 -3.43,0.45 -1.16,0.1 -2.31,0.2 -3.46,0.3 -1.17,0.04 -2.34,0.08 -3.5,0.12 -1.17,-0.02 -2.33,-0.04 -3.5,-0.06 -1.17,-0.08 -2.34,-0.16 -3.51,-0.24 -1.17,-0.15 -2.33,-0.29 -3.5,-0.44 -1.16,-0.21 -2.33,-0.42 -3.49,-0.63 -1.15,-0.28 -2.3,-0.57 -3.45,-0.85 -1.13,-0.35 -2.27,-0.7 -3.4,-1.04 -1.12,-0.43 -2.25,-0.85 -3.36,-1.26 -10.26,-4.68 -6.59,-12.17 3.21,-7.69zm324.06 42.34c0.95,0.36 1.9,0.72 2.85,1.09 0.97,0.3 1.94,0.6 2.91,0.9 0.98,0.24 1.98,0.48 2.96,0.72 1.01,0.18 2.01,0.36 3.02,0.54 1.01,0.12 2.03,0.25 3.04,0.38 1.02,0.07 2.04,0.14 3.07,0.21 1.02,0.02 2.04,0.03 3.07,0.05 1.02,-0.04 2.05,-0.07 3.08,-0.11 1.02,-0.09 2.04,-0.17 3.07,-0.25 1.02,-0.14 2.03,-0.27 3.05,-0.4 1,-0.18 2,-0.36 3,-0.54 0.98,-0.23 1.97,-0.45 2.96,-0.68 0.96,-0.26 1.93,-0.53 2.9,-0.8 0.94,-0.31 1.88,-0.62 2.82,-0.92 0.95,-0.36 1.9,-0.71 2.85,-1.07 2.18,-0.8 4.37,-1.6 6.55,-2.4 2.19,-0.62 4.38,-1.25 6.58,-1.87 2.15,-0.42 4.31,-0.84 6.46,-1.26 2.1,-0.19 4.2,-0.38 6.3,-0.57 2.03,0.06 4.06,0.12 6.1,0.17 1.94,0.34 3.88,0.68 5.83,1.02 1.84,0.64 3.68,1.27 5.51,1.91 11.7,6.79 7.57,14.02 -3.5,7.6 -1.37,-0.48 -2.74,-0.96 -4.1,-1.44 -1.53,-0.27 -3.05,-0.53 -4.57,-0.79 -1.67,-0.05 -3.34,-0.1 -5.01,-0.15 -1.8,0.16 -3.59,0.32 -5.39,0.48 -1.9,0.37 -3.8,0.74 -5.7,1.11 -1.98,0.56 -3.96,1.13 -5.95,1.69 -2.08,0.76 -4.15,1.52 -6.23,2.28 -1,0.38 -1.99,0.75 -2.99,1.12 -1.07,0.34 -2.13,0.69 -3.18,1.04 -1.09,0.3 -2.18,0.6 -3.26,0.9 -1.11,0.25 -2.22,0.51 -3.33,0.76 -1.13,0.2 -2.26,0.4 -3.38,0.6 -1.14,0.15 -2.29,0.3 -3.43,0.45 -1.16,0.1 -2.31,0.2 -3.46,0.3 -1.17,0.04 -2.34,0.08 -3.5,0.12 -1.17,-0.02 -2.33,-0.04 -3.5,-0.06 -1.17,-0.08 -2.34,-0.16 -3.51,-0.24 -1.17,-0.15 -2.33,-0.29 -3.5,-0.44 -1.16,-0.21 -2.33,-0.42 -3.49,-0.63 -1.15,-0.28 -2.3,-0.57 -3.45,-0.85 -1.13,-0.35 -2.27,-0.7 -3.4,-1.04 -1.12,-0.43 -2.25,-0.85 -3.36,-1.26 -10.26,-4.68 -6.59,-12.17 3.21,-7.69zm225.69 -16.39c0.94,0.36 1.9,0.72 2.85,1.09 0.97,0.3 1.95,0.6 2.92,0.9 0.98,0.24 1.97,0.48 2.96,0.72 1.01,0.18 2.01,0.36 3.02,0.54 1.02,0.12 2.03,0.25 3.04,0.38 1.02,0.07 2.04,0.14 3.07,0.21 1.02,0.02 2.04,0.03 3.07,0.05 1.02,-0.04 2.05,-0.07 3.08,-0.11 1.02,-0.09 2.04,-0.17 3.07,-0.25 1.01,-0.14 2.03,-0.27 3.04,-0.4 1,-0.18 2,-0.36 3,-0.54 0.98,-0.23 1.97,-0.45 2.96,-0.68 0.96,-0.26 1.93,-0.53 2.9,-0.8 0.94,-0.31 1.88,-0.62 2.83,-0.92 0.95,-0.36 1.9,-0.71 2.85,-1.07 2.18,-0.8 4.36,-1.6 6.55,-2.4 2.19,-0.62 4.38,-1.25 6.58,-1.87 2.15,-0.42 4.3,-0.84 6.46,-1.26 2.1,-0.19 4.2,-0.38 6.3,-0.57 2.03,0.06 4.06,0.11 6.1,0.17 1.94,0.34 3.89,0.68 5.83,1.02 1.84,0.64 3.67,1.27 5.51,1.91 11.7,6.79 7.57,14.02 -3.5,7.6 -1.37,-0.48 -2.74,-0.96 -4.1,-1.44 -1.53,-0.27 -3.05,-0.53 -4.57,-0.79 -1.67,-0.05 -3.34,-0.1 -5.01,-0.15 -1.8,0.16 -3.59,0.32 -5.38,0.49 -1.9,0.37 -3.8,0.74 -5.7,1.11 -1.98,0.57 -3.96,1.13 -5.95,1.69 -2.08,0.76 -4.15,1.52 -6.22,2.28 -1,0.37 -1.99,0.75 -2.99,1.12 -1.06,0.34 -2.12,0.69 -3.18,1.04 -1.09,0.3 -2.18,0.6 -3.26,0.9 -1.12,0.25 -2.22,0.51 -3.33,0.76 -1.13,0.2 -2.26,0.4 -3.38,0.6 -1.14,0.15 -2.28,0.3 -3.43,0.45 -1.16,0.1 -2.31,0.2 -3.46,0.3 -1.17,0.04 -2.34,0.08 -3.5,0.12 -1.17,-0.02 -2.34,-0.04 -3.5,-0.06 -1.17,-0.08 -2.34,-0.16 -3.5,-0.24 -1.17,-0.15 -2.34,-0.29 -3.5,-0.44 -1.17,-0.21 -2.33,-0.42 -3.49,-0.63 -1.15,-0.28 -2.3,-0.56 -3.45,-0.85 -1.13,-0.35 -2.27,-0.7 -3.4,-1.04 -1.12,-0.42 -2.24,-0.85 -3.36,-1.26 -10.26,-4.68 -6.59,-12.17 3.21,-7.69z"/>
   <path class="fil5" d="M615.9 438.25c-695.93,280.49 -315.51,994.75 278.56,550.48 -278.47,10.69 -383.29,-160.29 -278.56,-550.48z"/>
   <path class="fil6" d="M571.34 1167.07c0.25,-9.35 0.51,-18.71 0.76,-28.06 -25.04,-0.12 -50.07,-0.24 -75.12,-0.36 9,4.74 17.99,9.48 26.98,14.21 -0.26,16.05 -0.53,32.11 -0.79,48.16 -4.32,3.94 -9.05,3.68 -14.21,-0.79 0.88,-19.77 -2.76,-28.03 -9.47,-28.42 -17.07,4.31 -20.65,17.63 -15,37.11 2.57,5.01 6.3,8.96 18.16,5.53 3.07,3.94 -0.58,7.8 -4.7,11.24 -46.41,2.96 -79.75,-4.77 -122.42,-22.29 5.95,43.02 99.44,59.92 132.64,40.27 8.17,-6.44 -1.54,-17.51 3.16,-26.85 12.35,2.51 22.31,0.4 23.69,-18.16 0,-15 0,-30 0,-45 6.06,0.26 12.11,0.53 18.16,0.79 8.54,-0.13 13.71,5.64 18.16,12.63zm-373.17 -99.03c36.7,41.27 73.4,82.54 110.11,123.81 24.69,27.79 56.93,25.96 61.03,-17.44 7.92,5.51 15.84,5.9 23.77,1.19 8.81,8.19 17.92,10.37 27.33,6.54 7.27,5.86 15.28,7.95 24.96,1.78 8.93,33.59 41.05,9 27.93,-19.61 -3.68,0.81 -7.35,1.61 -11.02,2.42 1.95,11.84 -11.34,11.7 -15.95,2.43 1.14,-9.78 3.17,-18.66 -2.08,-26.91 -2.94,-0.15 -5.88,-0.29 -8.81,-0.43 1.47,7.12 0.92,14.09 -1.62,20.93 -4.24,2.09 -7.85,2.02 -10.11,-2.8 -2.89,-8.09 -3.43,-15.58 -2,-22.58 -3.78,-0.44 -7.56,-0.87 -11.34,-1.3 1.44,7.61 0.58,14.96 -2.57,22.06 -3.72,3.64 -6.95,3.58 -9.68,-0.17 -2.55,-7.76 -2.92,-15.91 -2.49,-24.2 -2.64,-0.11 -8.27,0.01 -10.91,-0.1 0.72,8.68 -2.66,35.02 -16.44,23.33 -1.25,-13.8 -2.49,-27.59 -3.74,-41.39 -6.53,0.39 -13.07,0.79 -19.61,1.19 0.79,13.47 1.58,26.94 2.38,40.41 -3.43,15.34 -10.93,21.85 -24.36,15.45 -30.7,-31.3 -61.41,-62.6 -92.11,-93.89 -10.9,-3.57 -21.79,-7.13 -32.68,-10.7zm260.45 67.36l29.41 5.26 -1.08 15.8 -28.33 -6.88 0 -14.18zm195.05 19.95c-5.11,7.29 -5.06,14.57 -2.66,21.86 -3.37,-0.01 -6.73,-0.02 -10.1,-0.03 -0.37,-13.99 -0.74,-27.99 -1.11,-41.98 -4.93,1.71 -9.87,3.41 -14.81,5.12 3.55,2.37 5.66,5.66 5.43,10.41 0,9.18 0,18.37 0,27.56 -13.41,0.55 -26.83,1.11 -40.25,1.66 -14.55,4.56 -3.34,37.1 12.06,36.9 11.05,-0.16 22.1,-0.3 33.15,-0.44 -4.57,9.23 -11.87,13.92 -20.4,16.57 -42.93,10.61 -57.85,-13.29 -56.24,-54.13 -41.38,57.38 14.7,106.06 65.61,66.84 10.48,-7.1 20.14,-16.07 29.25,-26.27 11.16,-12.49 11.43,-14.61 -7.45,-14.61 -13.6,0 -21.23,0 -34.83,0 -8.43,0 -16.35,-12.65 -5.07,-13.7 7.79,0.13 20.17,-1.24 27.86,-0.13 26.14,3.78 41.98,11.95 32.7,-36.8 -4.08,-6.03 -8.42,-6.5 -13.16,1.18zm24.2 78.26l3.09 29.18 14.83 -3.59 -3.53 -29.16 -14.38 3.56zm23.11 -5.13l1.64 27.24 17.97 -5.27 -6.34 -29.46 -13.27 7.49zm19.82 -66.23c0.4,14.61 -3.52,21.83 -13.78,18.26 -1.63,-18.12 -3.26,-36.24 -4.9,-54.36 -12.75,2.82 -25.49,5.65 -38.24,8.47 4.6,2.23 9.19,4.46 13.78,6.68 1.04,14.27 2.09,28.54 3.13,42.82 2.13,29.21 48.28,28.71 49.93,-0.55 0.54,-9.42 -3.14,-16.31 -9.92,-21.32zm7.7 -22.66c0,-0.3 0.15,-0.6 0.44,-0.75 1.63,1.05 2.68,1.51 3.27,1.51 0.14,-0.01 0.3,-0.16 0.44,-0.3l6.58 -4.62 -1.4 -20.9 5.56 -3.69c0,0.15 0,0.45 0,0.76 -0.14,0.45 -0.14,0.6 -0.14,0.75 0,2.42 1.03,4.83 3.11,7.25l0.1 11.06c3.43,-1.85 5.94,-4.02 10.54,-4.02 2.97,-0 5.35,1.36 6.97,3.92 1.64,2.57 2.52,5.43 2.52,8.6 0,2.26 -0.9,3.69 -2.99,13.8l-0.59 0.6c-0.73,0.15 -1.03,0.16 -1.03,0.16l-25.97 -0.01c-2.66,0 -4.45,-1.21 -5.2,-3.62 -0.85,-5.06 -2.19,-5.38 -2.19,-10.48l0 0zm12.65 2.47l16.81 -0.45c-0.3,-3.77 -2.31,-7.15 -5.58,-7.15l-11.23 7.6zm60.43 14.47c-3.41,1.81 -6.83,3.62 -10.25,5.44 -1.67,12.38 -0.13,24.76 -1.81,37.14 -7.5,3.77 -17.88,3.9 -24.74,0.42 0.16,-13.96 0.32,-27.92 0.48,-41.88 -3.18,3.63 -6.37,7.26 -9.55,10.9 -5.12,21.24 -13.96,38.56 -30.98,47.23 3.67,10.47 7.33,20.94 11,31.41 8.44,-2.66 16.87,-11.24 25.3,-23.15 25.1,14.08 38.87,-1.08 41.25,-25.34 -0.24,-14.06 -0.48,-28.11 -0.71,-42.17zm-21.84 -38.29l1.65 30.31 19.25 -8.81 -3.3 -37.47 -17.6 15.98zm33.71 83.04c-0.15,-33.23 -0.3,-69.28 -0.45,-102.52 14.22,-3.07 21.82,4.47 20.63,24.75 -7.23,22.58 -8.35,51.56 -6.54,68.86 -3.42,3.28 -10.23,5.63 -13.65,8.91zm217.26 -183.84c-35.91,16.4 -72.37,31.5 -110.83,41.96 -52.55,15.41 -71.1,32.03 -74.26,49.2 -1.36,7.44 5.61,20.62 20.12,20.62 10.87,0 19.69,-6.77 19.69,-15.12 0,-8.35 -12.56,-15.12 -19.69,-15.12 -7.13,0 -4.09,-0.22 -6.89,0.94 20.62,-22.54 39.48,-27.26 70.05,-32.78 36.6,-9.65 69.48,-28.99 101.81,-49.71zm-104.02 133.74c0,-22.98 0,-49.25 0,-72.23 19.47,4.54 37.41,-3.74 55.61,-18.56 -9.36,35.44 -23.01,53.02 -42.56,46.08 -0.46,9.4 -0.92,18.8 -1.37,28.2 -2.21,11 -6.56,15.02 -11.67,16.51zm-13.76 -71.91c0,20.21 -0.39,40.6 -0.39,59.27 0,75.09 -108.43,68.93 -58.64,-3.79 1.68,42.74 34.65,33.7 43.75,-2.33 1.33,-33.57 5.65,-59.08 15.28,-53.16zm-103.3 130.4l-2.07 8.3 33.6 -17.84 -4.14 -7.47 -27.38 17.01zm-171.27 41.21l0 8.55 28.29 -25.43 -5.82 -6.24 -22.47 23.12zm-236.1 -57.65l-6.13 5.96 37.95 8.21 0.4 -8.53 -32.22 -5.64zm-114.31 -86.75c9.73,2.78 19.47,5.56 29.2,8.34 13.75,3.94 0.37,30.82 -9.81,23.82 -6.27,-4.32 -12.55,-8.64 -18.82,-12.96 2.13,-1.75 4.26,-3.49 6.4,-5.24 3.34,2.62 5.42,4.26 8.96,6.38 6.2,3.72 11.88,-6.15 5.8,-7.9 -7.63,-2.21 -15.27,-4.41 -22.91,-6.62 0.39,-1.94 0.78,-3.88 1.17,-5.82z"/>
   <path class="fil4 str3" d="M80.64 995.45c345.44,192.93 662.23,159.63 1022.86,-26.82"/>
   <path class="fil3" d="M547.32 713.71c0.43,1.12 0.43,2.25 0.86,4.49 0,0.56 0,2.25 0,5.06 0,8.99 -1.29,17.98 -3.88,25.29 -3.02,10.11 -7.33,16.3 -12.93,19.67 -1.29,0.56 -3.45,1.12 -6.46,2.25l-3.45 0.56 -6.89 0 -3.02 0c-1.29,0 -2.59,0 -3.45,-0.56 -0.43,0 -0.43,-0.56 -0.43,-0.56 0,-0.56 0,-0.56 0.43,-0.56l2.59 -1.12c0.43,0 1.72,-0.56 4.31,-1.69l4.74 -2.25c6.9,-2.81 12.5,-8.43 17.67,-16.86 5.17,-7.87 7.76,-15.73 8.19,-24.16l-0.43 -2.81c0,-1.12 0,-2.25 -0.43,-2.81l-1.29 -2.81c-0.86,1.69 -1.72,2.81 -2.59,3.37l-1.72 0.56 -1.72 0.56c-1.29,-0.56 -2.59,-1.12 -3.88,-2.25 -1.29,-0.56 -1.72,-2.25 -1.72,-3.93 0,-1.69 0,-3.37 0.43,-6.18 0,-3.37 0.43,-5.62 0.43,-6.18 0.86,-2.81 1.72,-3.93 3.45,-3.93 3.02,0 5.6,1.68 7.76,5.62 1.72,2.81 3.02,6.75 3.45,11.24l0 0z"/>
   <path class="fil3" d="M550.96 677.3c0,2.81 -0.86,5.06 -1.72,5.62l-15.95 11.8c0,-1.68 0,-2.81 0.43,-3.93 0.43,-0.56 1.29,-1.68 3.02,-2.81l14.22 -10.68z"/>
   <path class="fil3" d="M529.92 671.89c0,30.34 -3.88,49.45 -12.5,57.88 -2.59,2.25 -6.03,4.5 -11.2,6.18 -3.45,1.69 -6.47,2.25 -9.48,2.81 -3.02,0.56 -5.6,0.56 -7.76,0.56l-0.43 -0.56 0 -0.56 0.43 0c0.86,0 3.88,-1.12 8.19,-3.93 3.88,-2.25 6.46,-3.93 8.19,-5.06 4.31,-2.81 7.33,-5.62 9.48,-8.43 3.88,-5.06 6.46,-10.11 8.62,-15.73 2.59,-6.18 3.88,-12.36 4.31,-18.54l0 -2.25 0 -1.12c0,-7.87 -2.15,-17.98 -6.46,-30.91 -1.29,-3.37 -3.45,-8.43 -6.03,-15.18l0.43 7.87 0.43 21.92c0,1.12 0,1.68 0,2.25 0,1.12 0,1.69 -0.43,2.25 0,0.56 -0.43,1.12 -0.43,1.12 -0.43,0 -0.86,-0.56 -0.86,-1.12l0 -2.25c0,-3.37 0,-11.24 -1.29,-23.6 -0.43,-5.62 -0.43,-9.55 -0.43,-11.24 0,-5.62 0.43,-10.11 1.72,-14.05 0.43,0 1.72,3.37 3.88,8.99l3.02 7.87c3.02,7.87 5.17,15.18 6.46,20.23l1.72 8.43c0.43,2.25 0.43,3.93 0.43,6.18l0 0z"/>
   <path class="fil3" d="M509.38 685.45l0 1.12 0 1.68 0 1.69c0,0.56 0,1.12 0,1.68l-0.43 1.69 -0.43 1.69c-2.59,2.25 -5.17,5.62 -7.76,10.11l-5.17 7.87 0.86 8.99 0.43 7.3c0,1.68 0,4.5 0.43,8.43l0.43 9.55c-0.43,0 -0.43,0 -0.43,0 0,-3.37 0,-6.18 -0.43,-7.87 0,-1.12 0,-2.25 -0.43,-4.5l-1.29 -11.8 -0.86 -7.87 -11.2 20.23 -1.72 2.25 -2.59 3.37 0 -12.93c1.29,-1.12 3.02,-3.37 5.17,-6.74 2.15,-3.37 3.45,-5.62 4.31,-7.87 0,0 -1.29,0.56 -4.31,0.56l-3.02 0.56 -0.86 0 -1.29 0c-5.17,-2.25 -7.76,-3.93 -7.76,-6.18l0 -5.06 0 -5.62c0,-2.25 0.43,-3.93 0.86,-5.62 1.72,-3.37 4.74,-6.18 9.05,-7.87 2.15,-1.68 4.31,-2.25 6.46,-2.25l0.86 0c4.31,1.68 6.03,6.18 6.03,13.48l0.43 3.93 2.16 -0.56c0.43,0 0.86,-0.56 1.29,-1.12 3.02,-4.5 6.46,-8.99 9.91,-12.93 0,0 0.43,-0.56 0.86,-0.56 0,0.56 0.43,0.56 0.43,1.12l0 0zm-17.24 15.17c-0.86,-3.93 -2.16,-5.62 -3.88,-6.18l-1.72 -0.56 -1.29 0c-2.16,0 -4.31,1.12 -6.47,2.25 -1.72,1.12 -3.02,2.25 -3.88,3.37l0 0.56 0 0.56c0.86,0.56 1.72,1.12 2.59,1.12l3.02 0.56 3.45 0 3.02 -0.56 0.86 0 1.72 0 2.59 -1.12z"/>
   <path class="fil3" d="M489.64 679.71c-0.43,0 -0.43,-0.56 0,-1.68 0,0 0.86,0 3.02,-1.12 4.31,-1.69 6.89,-3.93 8.19,-6.18 0,-1.12 -0.43,-1.69 -0.43,-1.69 -2.59,0 -3.88,-0.56 -4.74,-2.25 -0.86,-2.25 -0.43,-3.93 1.3,-5.06 1.29,-1.69 3.01,-1.69 5.17,-1.12 2.59,1.12 3.88,2.81 3.88,6.18 0,2.81 -1.29,5.62 -3.45,7.87 -2.16,2.25 -4.74,3.93 -8.19,4.49 -2.15,1.12 -3.88,1.12 -4.74,0.56l0 0z"/>
   <path class="fil3" d="M467.57 674.21l0 3.37c0,0.56 0,1.12 0.43,2.25 0,1.12 0,1.69 -0.43,1.69l-0.43 2.25c-0.86,1.69 -2.59,3.93 -5.6,6.18 -1.3,1.12 -3.02,2.25 -5.17,3.93l0 -1.12c0,-1.12 0,-2.81 0.43,-5.06l0.86 -5.06 1.29 -1.12 2.16 -1.12c0.43,-0.56 1.72,-1.68 3.88,-3.37l2.59 -2.81zm11.64 66.31l-2.15 1.69 -1.72 1.12c-1.29,1.12 -2.59,1.12 -3.88,1.12 -3.02,0 -5.61,-1.69 -7.76,-5.06l-0.86 1.69 0 -12.93 2.15 -3.93c0.43,-1.12 0.86,-2.25 1.29,-3.93 0,-0.56 0,-0.56 0.43,-0.56 0,0 0.43,0.56 0.43,1.12l0 2.25 0.43 3.37c0,1.68 0,2.81 -0.43,3.93 0,0.56 -0.43,1.68 -1.3,3.93l1.3 0.56 1.29 0c2.59,0 4.74,-1.12 7.32,-3.37 0.86,-1.12 2.16,-2.25 3.45,-4.5l0 13.49z"/>
   <path class="fil3" d="M481.7 656.31c0,2.81 -0.86,5.06 -1.72,5.62l-15.95 11.8c0,-1.68 0,-2.81 0.43,-3.93 0.43,-0.56 1.29,-1.68 3.02,-2.81l14.22 -10.68z"/>
   <path class="fil3" d="M463.26 740.52c-3.02,2.81 -6.89,4.5 -12.07,4.5 -5.17,0 -10.34,-4.5 -14.22,-13.49l-3.88 2.25 -2.59 1.12 0.86 7.87 0 0.56 -0.43 0 -0.86 -3.93 -0.86 -3.93c-3.88,1.69 -7.32,2.25 -11.2,2.25l-2.15 0 -1.72 0 -1.29 1.68c-0.43,1.12 -0.86,1.69 -1.29,1.69l0 -12.93c1.72,-2.25 2.59,-4.5 3.45,-7.87 0,-0.56 0.43,-0.56 0.43,-0.56 0.43,0 0.43,0.56 0.43,1.12l0.43 2.25 0 3.37c0,1.12 0,2.25 0,2.81l-0.86 3.37c3.88,0 8.19,-1.69 13.36,-5.62l0 -11.8c0,0 0,-1.12 0,-2.25 0,-1.12 0,-1.69 0.43,-2.25 0,-1.69 0,-2.81 0,-3.37 0.43,-0.56 0.43,-1.12 0.86,-1.68 0,-0.56 0.43,-1.12 0.43,-1.69l2.16 -2.81c0.86,-1.12 3.45,-2.81 7.76,-5.62 4.31,-2.25 7.33,-3.37 9.05,-3.37l0.86 0c0,0 0.43,0.56 0.86,1.12l0.43 1.12 0 1.12 0.43 2.25 0 2.25 -0.43 2.81c0,0.56 0,1.12 -0.43,2.25l-0.43 2.25c-1.29,8.99 -4.74,15.73 -10.77,21.36 2.59,3.37 5.6,5.06 8.62,5.06 6.46,0 11.2,-2.25 14.65,-6.75l0 13.49zm-14.22 -35.97c0,-0.56 0,-0.56 -0.43,-1.12l-0.86 0c-1.72,0 -4.74,1.12 -9.05,3.93 -3.88,2.25 -6.03,3.93 -6.47,4.5l-1.72 4.5c-0.43,0.56 -0.43,2.25 -0.43,3.93l0 6.18c2.15,-1.69 4.74,-3.37 6.46,-5.62l3.45 -3.37c1.29,-1.12 3.02,-3.37 5.6,-6.74 2.15,-2.81 3.02,-5.06 3.45,-6.18l0 0z"/>
   <path class="fil3" d="M439.82 743.82c0,3.37 -0.86,5.06 -2.15,6.18l-15.95 11.8c0,-2.25 0.43,-3.37 0.86,-4.49 0.43,-0.56 1.29,-1.69 2.59,-2.81l14.65 -10.68z"/>
   <path class="fil3" d="M411.98 740.52c-0.86,1.12 -2.15,1.69 -3.88,1.69 -2.59,0 -4.74,-1.69 -6.89,-4.5 -0.43,2.25 -1.29,3.93 -2.15,5.06 -0.86,1.69 -1.29,2.25 -2.16,2.25 0,-0.56 -0.86,-0.56 -1.29,-1.12 -0.86,-0.56 -1.29,-1.12 -2.59,-2.81 -1.29,-1.12 -2.59,-2.81 -3.88,-5.06l-0.86 1.69 -2.59 3.37 0 -12.93c0.43,-0.56 1.29,-1.68 2.59,-4.5l1.72 -2.81c0.43,-1.12 0.86,-1.12 1.29,-1.12 0.43,0 0.86,0 0.86,0l1.3 1.12 4.31 3.93c0.43,0 1.29,1.12 2.59,2.25 2.15,1.69 4.31,2.81 6.46,2.81 1.72,0 3.45,-0.56 5.17,-2.25l0 12.93z"/>
   <path class="fil3" d="M408.73 694.93l-0.43 6.74 -1.72 -1.69 -2.16 -1.68c-1.29,1.12 -2.59,3.37 -5.17,6.74 -1.72,1.69 -3.45,2.81 -5.17,2.81 -0.86,0 -1.72,0 -2.16,0l-1.29 -0.56 1.72 -1.12 1.29 -1.12 2.59 -2.25 5.6 -6.18c-0.86,-1.12 -1.72,-2.25 -2.15,-3.37l-0.43 -1.12 -0.43 -0.56c0,-0.56 0,-1.12 0,-1.12 0,-3.37 0.86,-6.18 2.59,-8.99 0.86,-1.68 2.16,-2.25 3.45,-2.81 2.59,0 3.45,2.25 3.45,6.18l0 1.69c0,0.56 0,1.12 -0.43,2.25l0 0.56 -0.43 1.69 -0.43 1.68 1.29 1.12c0,0.56 0.43,0.56 0.43,1.12l0 0zm-3.45 -6.18c0,-2.25 -0.86,-3.93 -3.02,-3.93l0 0 -0.43 0 -0.43 1.12c0,0.56 0.43,1.69 0.86,2.25 0.43,1.12 1.29,1.69 2.59,2.81 0.43,-0.56 0.43,-1.69 0.43,-2.25l0 0z"/>
   <path class="fil3" d="M386.99 740.52c-0.86,0.56 -2.59,2.25 -5.17,3.93l-3.02 2.81 -2.59 1.12 0 3.37c0,0.56 0,1.12 0,2.25l-1.29 7.3c-0.86,5.62 -2.59,11.24 -6.03,16.3 -2.16,3.93 -3.88,6.74 -5.6,7.87 -2.16,1.68 -4.31,2.81 -7.76,3.37l-3.45 1.12 -3.88 0 -4.74 0c-0.86,0 -2.16,-0.56 -4.74,-1.12 -3.88,-1.12 -7.33,-2.25 -9.48,-3.37 -0.43,0 -0.43,0 -0.43,-0.56l0 -0.56 1.72 0.56 3.02 0.56 3.88 0.56 1.72 0c1.72,0 3.02,0 3.45,-0.56 1.3,0 2.16,-0.56 3.45,-0.56l3.45 -1.69c10.34,-3.37 18.1,-12.93 23.7,-28.1l0 -1.12 0.43 -1.12 0 -2.81 -3.45 1.12c-1.29,0.56 -2.15,0.56 -2.59,0.56 -3.02,0 -4.74,-1.12 -5.6,-3.37 0,-1.12 -0.43,-2.25 -0.43,-3.37 0,-3.93 0.43,-6.74 1.29,-10.12 0.86,-3.37 1.72,-5.62 3.45,-5.62l0.43 0c1.72,0 3.45,1.12 5.17,2.81 1.72,1.69 3.02,3.93 3.45,5.62l4.74 -3.37c3.45,-3.37 5.6,-5.62 6.89,-7.31l0 13.49z"/>
   <path class="fil3" d="M359.54 715.5c0,0 0,-0.56 0,-1.69 0,0 1.29,0 3.02,-1.12 4.31,-1.69 6.89,-3.93 8.19,-6.18 0,-1.12 0,-1.68 -0.43,-1.68 -2.16,0 -3.88,-0.56 -4.74,-2.25 -0.43,-2.25 -0.43,-3.93 1.29,-5.06 1.29,-1.68 3.45,-1.68 5.6,-1.12 2.59,1.12 3.88,2.81 3.45,6.18 0,2.81 -0.86,5.62 -3.02,7.87 -2.59,2.25 -5.17,3.93 -8.62,4.5 -2.15,1.12 -3.88,1.12 -4.74,0.56l0 0z"/>
   <path class="fil3" d="M350.8 705.52c0,30.34 -3.88,49.45 -12.07,57.88 -2.59,2.25 -6.46,4.5 -11.64,6.18 -3.45,1.68 -6.46,2.25 -9.05,2.81 -3.45,0.56 -6.03,0.56 -8.19,0.56l-0.43 -0.56 0.43 -0.56 0 0c1.3,0 3.88,-1.12 8.19,-3.93 3.88,-2.25 6.46,-3.93 8.62,-5.06 3.88,-2.81 6.89,-5.62 9.48,-8.43 3.45,-5.06 6.46,-10.12 8.62,-15.73 2.15,-6.18 3.88,-12.36 3.88,-18.55l0 -2.25 0 -1.12c0,-7.87 -2.15,-17.98 -6.46,-30.91 -1.29,-3.37 -3.02,-8.43 -6.03,-15.17l0.43 7.87 0.86 21.91c0,1.12 0,1.69 -0.43,2.25 0,1.12 0,1.68 0,2.25 -0.43,0.56 -0.43,1.12 -0.86,1.12 -0.43,0 -0.43,-0.56 -0.86,-1.12l0 -2.25c0.43,-3.37 0,-11.24 -0.86,-23.6 -0.43,-5.62 -0.86,-9.55 -0.86,-11.24 0,-5.62 0.86,-10.12 1.72,-14.05 0.43,0 1.72,3.37 3.88,8.99l3.02 7.87c3.45,7.87 5.6,15.17 6.46,20.23l1.72 8.43c0.43,2.25 0.43,3.93 0.43,6.18l0 0z"/>
   <path class="fil3" d="M554.87 902.31c0,3.42 -1.62,5.13 -4.04,6.27l-29.91 11.97c0,-2.28 0.81,-3.42 1.62,-4.56 0.81,-0.57 2.42,-1.71 4.85,-2.85l27.48 -10.83z"/>
   <path class="fil3" d="M537.09 845.85c0.81,2.28 0,4.56 0,6.27 0,1.14 -0.81,3.42 -1.62,5.7 -0.81,2.85 -3.23,5.7 -6.47,7.98l0 -13.11 1.62 -1.14c0.81,-1.14 2.42,-3.42 3.23,-5.7 -2.43,-6.27 -5.66,-10.26 -9.7,-12.54l-0.81 1.71c-0.81,0 -0.81,0.57 -1.62,2.28 0,0 -0.81,0 -0.81,0 0,0 -0.81,0 -0.81,-0.57l0 -1.71c0,-1.71 0,-4.56 1.62,-9.12 0.81,-3.42 2.43,-5.13 3.23,-6.27l2.42 2.28 2.43 2.28c4.04,3.42 6.47,6.84 7.27,10.26 0,0.57 0,1.71 0,2.85l0 8.55zm9.7 36.48l-2.43 4.56c-0.81,2.28 -2.42,3.99 -3.23,4.56l-10.51 -3.99 2.42 -5.13 2.43 -4.56 7.27 2.28c1.62,0.57 3.23,1.14 4.04,2.28l0 0z"/>
   <path class="fil3" d="M529.81 865.23l-2.43 1.14 -3.23 1.71c-2.43,0.57 -5.66,1.71 -10.51,2.28l-4.04 0c-8.08,0.57 -16.16,-1.71 -22.63,-6.27 -7.28,-5.13 -10.51,-11.97 -10.51,-20.52 -6.47,3.99 -13.74,9.12 -22.63,15.96l0.81 4.56 0.81 3.99 1.62 4.56c0,2.28 0.81,3.99 1.62,5.7l-0.81 1.14 0 0 -0.81 -0.57 -3.23 -8.55 -2.42 -8.55 -5.66 3.99 0 -13.11 2.42 -2.28 0 -1.71 0 -7.41c0,-3.42 0,-6.84 0.81,-10.26 0,-0.57 0,-1.14 0.81,-1.71 0,-1.14 0,-1.71 0.81,-2.85 0.81,-2.85 4.04,-5.13 8.08,-6.27 2.42,-1.14 5.66,-1.71 8.89,-1.71 2.43,0 4.04,0 4.04,0.57 1.62,0 2.43,0 2.43,0l2.42 0.57 10.51 1.71 4.85 0.57 4.85 0 3.23 0 3.23 0c0.81,0 3.23,-0.57 6.47,-1.71l0 1.71c0,1.71 0,3.42 -0.81,5.7 -0.81,1.71 -0.81,2.85 -1.62,3.99 -4.85,0.57 -9.7,1.71 -14.55,3.42 -4.85,1.71 -8.89,3.99 -12.12,5.7 1.62,11.97 10.51,17.67 26.67,17.67l0.81 0 2.43 -0.57 1.62 0c1.62,0 3.23,-0.57 4.85,-0.57 1.62,0 3.23,-0.57 4.04,-1.14 2.43,-0.57 5.66,-1.71 8.89,-3.99l0 13.11zm-50.92 -33.63l-6.47 -1.14 -5.66 -0.57c-6.47,0 -10.51,1.71 -12.93,4.56 0,0 0,1.14 -1.62,2.85 0,0.57 0,1.14 -0.81,1.71l0 2.28 0 2.28 0 3.99 4.85 -3.42c7.27,-4.56 11.31,-7.41 12.12,-7.98 0.81,0 0.81,-0.57 1.62,-0.57 0.81,-0.57 0.81,-0.57 1.62,-1.14 0,0 0.81,-0.57 2.43,-1.14l4.85 -1.71z"/>
   <path class="fil3" d="M500.72 773.96c0,3.13 -0.68,5.63 -2.72,6.26l-25.18 13.15c0,-1.88 0,-3.13 0.68,-4.38 0.68,-0.62 2.04,-1.88 4.77,-3.13l22.46 -11.89z"/>
   <path class="fil3" d="M446.56 865.23l-4.04 1.71 -3.23 1.14c-3.23,1.14 -5.66,1.14 -7.28,1.14 -5.65,0 -10.51,-1.71 -14.55,-5.13l-2.42 1.71 0 -13.11 4.85 -3.99c0.81,-1.14 1.62,-2.28 2.43,-3.99 0,-0.57 0,-0.57 0.81,-0.57 0,0 0,0.57 0.81,1.14l0 2.28 0 3.42c0.81,1.71 0,2.85 0,3.99 0,0.57 -1.62,1.71 -2.42,3.99l1.62 0.57 3.23 0c4.04,0 8.89,-1.14 12.93,-3.42 2.42,-1.14 4.85,-2.28 7.27,-4.56l0 13.68zm-12.12 17.67c-1.62,2.28 -2.43,4.56 -3.23,6.27 -0.81,1.14 -1.62,2.28 -2.42,3.42l-10.51 -4.56 1.62 -3.42 3.23 -6.27c2.42,0.57 4.85,1.14 7.27,2.28 2.43,1.14 3.23,1.71 4.04,2.28l0 0z"/>
   <path class="fil3" d="M425.85 793.37c-0.68,0 -0.68,-0.63 0,-1.88 0,0 1.36,0 4.76,-1.25 6.81,-1.88 10.89,-4.38 12.93,-6.89 0,-1.25 -0.68,-1.88 -1.36,-1.88 -3.4,0 -5.44,-0.63 -6.81,-2.5 -1.36,-2.5 -0.68,-4.38 1.36,-5.63 2.72,-1.88 5.44,-1.88 8.85,-1.25 4.09,1.25 6.13,3.13 6.13,6.89 0,3.13 -2.04,6.26 -5.45,8.76 -3.4,2.5 -7.49,4.38 -12.93,5.01 -4.08,1.25 -6.12,1.25 -7.49,0.63l0 0z"/>
   <path class="fil3" d="M420.69 815.07l0.81 0c0,0.57 -0.81,0.57 -0.81,1.14 -7.28,2.85 -13.74,5.13 -19.4,6.84l-9.7 3.42 -11.32 2.85 1.62 3.42 4.04 7.98c4.04,8.55 9.7,13.68 16.16,15.39l3.23 0c3.23,0 7.27,-1.14 11.32,-4.56l0 13.68c-1.62,0.57 -3.23,1.71 -4.85,2.28l-2.42 0.57c-2.43,0 -3.23,0.57 -4.04,0.57l-1.62 0c-4.04,-0.57 -7.27,-1.14 -9.7,-2.85 -2.42,-1.71 -4.04,-3.99 -6.47,-7.41 0,14.25 -4.04,24.51 -11.32,29.65 -8.08,5.7 -16.17,8.55 -25.86,9.12 -1.62,0 -4.85,-0.57 -9.7,-1.14 -0.81,-0.57 -1.62,-0.57 -3.23,-1.14 -4.04,-1.14 -7.28,-2.85 -11.32,-5.7 -4.85,-2.85 -8.08,-6.27 -10.51,-10.83 -1.62,-3.99 -2.42,-9.12 -2.42,-15.39 0,-3.99 0,-7.41 0.81,-9.12 1.62,-5.7 6.47,-10.26 15.36,-14.82 4.85,-2.85 9.7,-4.56 13.74,-5.7l6.47 -1.71 8.08 -1.71 8.89 -1.14 6.47 -1.71c-1.62,-3.42 -3.23,-7.41 -6.47,-12.54l-1.62 -3.99c-0.81,-1.14 -1.62,-2.85 -3.23,-4.56l-0.81 -1.71 -0.81 -1.14 -0.81 -0.57 0 -6.84c0,-1.14 0,-1.71 0.81,-2.85 0,-0.57 0,-1.14 0.81,-1.71 0,0.57 1.62,2.28 3.23,5.7l3.23 5.7 8.08 15.39 3.23 7.98 21.01 -5.13c4.85,-0.57 11.32,-2.85 21.02,-5.7l0 0zm-38.8 47.89l0 -4.56c0.81,-2.85 0,-7.41 -2.42,-13.11l-3.23 -9.12 -1.62 -5.7 -12.93 3.42c-14.55,2.85 -25.06,6.84 -31.53,10.26 -4.85,3.42 -8.89,6.27 -11.31,9.69l-0.81 1.14 -0.81 2.28 0 2.28 0 2.28c-0.81,5.7 1.62,10.83 7.27,15.96 6.47,5.13 13.74,7.98 21.82,7.98 4.85,0 10.51,-0.57 15.36,-2.28 6.47,-1.71 11.32,-5.13 15.36,-9.12 3.23,-3.99 4.85,-7.98 4.85,-11.4l0 0z"/>
   <path class="fil3" d="M380.28 902.31c0,3.42 -0.81,5.13 -3.23,6.27l-29.91 11.97c0,-2.28 0,-3.42 1.62,-4.56 0.81,-0.57 2.42,-1.71 4.85,-2.85l26.67 -10.83z"/>
   <path class="fil3" d="M668.12 989.79c0,32.25 -7.51,52.94 -24.19,62.07 -5,3.04 -11.67,4.87 -21.68,7.3 -6.67,1.22 -12.51,1.83 -18.34,2.44 -5.84,0.61 -10.84,1.22 -15.01,1.22l-0.83 -1.22 0 0 0.83 -0.61c1.67,0 7.5,-1.22 15.84,-4.26 7.51,-1.83 12.51,-3.65 15.85,-5.48 8.34,-2.43 14.17,-6.08 18.34,-9.13 7.51,-4.87 12.51,-10.96 16.68,-16.43 5,-7.3 7.5,-14 8.34,-20.69l0 -1.83 0 -1.82c0,-8.52 -4.17,-19.47 -12.51,-33.47 -2.5,-3.65 -6.67,-9.13 -11.68,-16.43l0.84 8.52 0.83 23.73c0,1.22 0,2.44 0,2.44 0,1.21 0,1.82 -0.83,2.43 0,0.61 -0.84,1.22 -0.84,1.22 -0.83,0 -1.67,0 -1.67,-1.22l0 -2.43c0,-3.65 0,-12.17 -2.5,-25.56 -0.83,-6.09 -0.83,-9.74 -0.83,-12.17 0,-6.08 0.83,-10.95 3.34,-15.21 0.83,0.61 3.33,3.65 7.5,9.73l5.84 8.52c5.84,9.13 10,16.43 12.51,22.52l3.33 9.13c0.84,1.83 0.84,3.65 0.84,6.7l0 0z"/>
   <path class="fil3" d="M622.25 991.61c0.84,4.87 0,9.13 -1.67,14 -1.67,6.69 -5.84,12.78 -11.68,18.86 -1.67,1.22 -4.17,3.04 -6.67,4.26l0 -14c1.67,-0.61 4.17,-3.04 7.51,-6.08 3.33,-3.04 5,-5.48 5.84,-6.69 1.67,-3.65 2.5,-7.3 2.5,-10.35 0.84,-6.69 -3.33,-14.6 -12.51,-24.95 -2.5,-3.04 -5.84,-6.69 -9.18,-9.73 0,1.82 0.84,3.65 0.84,6.69 0.83,3.04 0.83,5.48 0.83,6.09l1.67 14.6c-0.83,0.61 -0.83,0.61 -0.83,0.61l-0.84 -0.61 -1.67 -1.22 0 -2.43 -2.5 -14 -0.83 -7.3 -0.84 -7.91 0 -3.04 0 -3.65c0,-1.83 0,-2.43 0,-3.04 0,-0.61 0,-0.61 0.84,-1.22 3.33,1.22 6.67,4.26 11.67,9.13 5.01,6.08 9.17,11.56 11.68,17.65 4.17,7.91 5.84,16.43 5.84,24.34l0 0z"/>
   <path class="fil3" d="M603.07 1028.13c0,0 -1.67,1.22 -5,2.44 -3.33,1.21 -5,1.21 -6.67,1.21l-3.33 0c-6.67,-2.43 -10.84,-6.69 -12.51,-12.78l-3.34 -9.13 -0.83 3.04 -0.84 3.65c-0.83,1.83 -2.5,4.26 -5.84,7.91 -1.67,1.83 -4.17,3.65 -5.84,4.26l0 -14c5,-3.04 8.34,-7.3 10.01,-12.17l0 -1.22c0,-1.22 0,-3.04 -0.84,-4.26l-1.67 -4.87 -5.84 -14.6c-2.5,-5.48 -3.34,-8.52 -3.34,-9.13l0 -6.69 0 -3.04c0.84,-0.61 0.84,-1.21 1.67,-1.21l0.83 0.61c2.5,4.26 5.01,10.95 8.34,18.86 2.5,6.69 5.01,12.17 6.67,17.65 2.5,9.74 5.01,15.22 5.84,17.04 1.67,2.44 3.34,4.26 5,5.48 0.84,0.61 0.84,0.61 1.67,1.22 0.84,0 2.5,0 4.17,0 4.17,0.61 8.34,-1.22 11.67,-4.26l0 13.99z"/>
   <path class="fil3" d="M579.72 917.37c0,1.82 0,3.04 0,3.65 0,0 -0.84,0.61 -0.84,1.22 -0.83,1.82 -1.67,3.04 -2.5,3.04l-0.83 -1.22 0.83 -3.65 0 -3.04c0,-1.22 -0.83,-3.04 -3.33,-6.09 -0.84,-0.61 -2.5,-1.82 -5.01,-3.65l0.84 -5.47c3.33,1.21 5.84,3.65 7.5,6.08 2.5,4.26 3.34,7.3 3.34,9.13l0 0zm11.67 11.56c-0.83,3.04 -5,5.47 -10.84,7.3l-1.67 0 -0.83 0c-0.83,0.61 -2.5,1.83 -5,3.04 -2.5,0.61 -4.17,0.61 -5.84,0.61 -0.83,0 -1.67,-0.61 -1.67,-2.43 0,-1.83 0.84,-3.04 0.84,-3.65l1.67 -1.22c0,-0.61 0.84,-0.61 1.67,-1.22l0.83 1.22 0.84 1.22c0,0 0.83,0 1.67,0.61 2.5,0 4.17,-1.82 5.84,-4.87l0.84 -2.44c0,-0.61 0,-1.21 0.83,-1.82 0.83,0 1.67,0 1.67,0.61l0 2.43c0,0.61 0,0.61 0.83,1.22l0.84 0.61c0,0 0,0 0.83,0 1.67,-0.61 2.5,-1.83 2.5,-3.04l0 -3.04c0,-0.61 0,-1.22 0,-1.82 0,0 0.84,-0.61 1.67,-0.61 0,-0.61 0.83,-0.61 0.83,0l1.67 2.43c0,1.22 0.83,2.43 0.83,3.04l-0.83 1.83z"/>
   <path class="fil3" d="M561.37 1028.13c-1.67,1.22 -4.17,2.44 -8.34,3.65 -3.33,0.61 -6.67,1.22 -9.17,1.83 -0.83,0 -2.5,-0.61 -5,-0.61 -1.67,-0.61 -3.34,-0.61 -4.17,-0.61l-1.67 0c-0.83,0 -1.67,0 -3.33,0.61 -2.5,0 -5.84,2.43 -10.01,6.69 -3.34,3.65 -5.84,7.3 -7.51,10.35l-0.83 0.61c0,0.61 -0.83,1.21 -0.83,0.61l-2.5 -3.65c0,-2.43 -0.84,-4.26 -0.84,-6.08l0 -1.22c0.84,-1.82 1.67,-4.26 3.34,-5.48 0.83,-1.21 2.5,-3.65 5,-6.69 5.84,-6.08 10.84,-9.73 15.84,-9.73 0.84,0 3.34,0.61 7.51,1.82 2.5,0.61 4.17,1.22 5.84,1.22l0.83 0c2.5,0 5,-1.22 9.17,-3.04 2.5,-1.22 5,-3.04 6.67,-4.26l0 13.99z"/>
   <path class="fil3" d="M541.51 1046.59c0,3.65 -0.84,5.47 -3.34,6.69l-30.85 12.78c0,-2.44 0,-3.65 1.67,-4.87 0.83,-0.61 2.5,-1.82 5,-3.04l27.52 -11.56z"/>
   <path class="fil3" d="M516.85 974.51c-8.34,0 -12.51,0 -15.01,0.61 -5,1.22 -8.34,3.04 -10,6.09l0 3.04 -0.84 3.04 0.84 3.65 1.67 4.87 3.34 -3.65 5.84 -5.48 5 -4.87c3.33,-3.04 5.84,-5.47 9.17,-7.3l0 0zm28.35 -3.65c-7.5,2.44 -11.67,4.26 -14.17,5.48 -5.01,2.43 -8.34,5.47 -12.51,9.13l-11.67 12.17 -9.18 8.52c1.67,3.65 2.5,6.7 4.17,9.74l3.34 6.08 2.5 4.26c0,0.61 0,1.22 0,1.22 -0.83,0.61 -0.83,0 -0.83,0l-6.67 -9.74 -5 -9.13 -5 3.65 -5 3.65 0 -14 5 -3.65 -1.67 -4.26 -0.83 -4.87c-0.84,-2.44 -0.84,-4.26 -0.84,-5.48 0,0 0,-1.83 -0.83,-5.48 0,-7.3 3.33,-12.17 10.84,-14.6 4.17,-0.61 9.17,-1.22 14.17,-1.22l6.67 0.61 5.84 0c2.5,0.61 5.01,0 7.51,-0.61l5 -0.61 3.34 -0.61c0.83,-0.61 3.33,-1.22 5,-2.44l0.83 3.04 0 4.87 0 2.44 0 1.82zm-10 -29.21c0,3.04 -1.67,5.48 -3.34,6.09l-30.85 12.78c0,-1.83 0,-3.04 0.83,-4.26 0.84,-0.61 2.5,-1.83 5.84,-3.04l27.52 -11.56z"/>
   <path class="fil3" d="M529.52 1005.95c0,1.83 -1.67,3.65 -2.5,6.7 -0.83,1.82 -2.5,3.04 -3.33,3.65l-10.84 -4.87 0.83 -1.82 1.67 -3.65 3.34 -4.87c5.84,1.21 10,3.04 10.84,4.87l0 0z"/>
   <path class="fil3" d="M486 1015.29c-2.5,1.22 -5,1.83 -7.51,1.83 -5,0 -9.17,-1.22 -13.34,-4.87 -1.67,2.43 -3.33,4.26 -4.17,6.08 -1.67,1.22 -3.33,1.83 -4.17,1.83 -0.83,0 -1.67,-0.61 -3.33,-1.22 -0.83,-0.61 -2.5,-1.22 -4.17,-2.43 -2.5,-1.83 -5,-3.65 -7.5,-6.09l-1.67 2.44 -5.01 3.04 0 -14c0.84,-0.61 2.5,-1.82 5.01,-4.26l3.33 -3.65c0,-0.61 0.84,-1.21 2.5,-1.21 0,0 0.84,0 1.67,0l1.67 1.21 8.34 4.26c1.67,0.61 3.33,1.22 5.84,2.44 3.33,1.82 7.5,3.04 11.67,3.04 3.33,0 7.5,-0.61 10.84,-2.43l0 13.99z"/>
   <path class="fil3" d="M484.95 1029.2c0,3.65 -0.84,5.47 -3.34,6.69l-30.85 12.78c0,-2.43 0,-3.65 1.67,-4.87 0.83,-0.61 2.5,-1.82 5,-3.04l27.52 -11.56z"/>
   <path class="fil3" d="M435.96 1015.29l-3.34 2.43 -4.17 1.22c-2.5,0.61 -5,0.61 -7.5,0.61 -5.84,0.61 -10.01,-1.22 -15.01,-5.48l-1.67 1.83 0 -14 4.17 -4.26c1.67,-1.21 2.5,-2.43 2.5,-4.26 0,-0.61 0,-0.61 0.84,-0.61 0,0 0.83,0.61 0.83,1.21l0.83 2.44 0 3.65c0,1.82 0,3.04 0,4.26 -0.83,0.61 -1.67,2.43 -3.33,4.26l2.5 0.61 2.5 0.61c5,0 9.17,-1.21 14.18,-4.26 2.5,-0.61 5,-2.43 6.67,-4.26l0 13.99zm-15.85 18.26l0.84 3.04c0,0.61 0,1.21 0,2.43 0,1.22 0,1.83 0,1.83l-1.67 2.43c-0.83,1.83 -4.17,3.65 -10.84,6.69l-5.84 3.04c-1.67,0.61 -2.5,1.21 -4.17,1.21l0 -1.21c0,-1.22 0,-3.04 0.84,-5.48l1.67 -4.87 2.5 -1.82 4.17 -1.22c2.5,-0.61 5,-1.83 7.5,-3.04l5 -3.04z"/>
   <path class="fil3" d="M404.27 960.52c-0.83,0 -0.83,-0.61 0,-1.22 0,0 1.67,-0.61 5.84,-1.83 8.34,-1.82 13.34,-3.65 15.84,-6.69 0,-0.61 -0.83,-1.22 -0.83,-1.82 -5.01,0 -7.51,-0.61 -9.17,-2.44 -1.67,-2.43 -0.84,-4.26 2.5,-5.47 2.5,-1.22 5.84,-1.83 10,-1.22 5.01,1.22 7.51,3.04 7.51,6.69 0,3.04 -2.5,6.09 -6.67,8.52 -4.17,2.43 -9.18,4.26 -15.85,5.48 -4.17,0.61 -7.5,0.61 -9.17,0l0 0z"/>
   <path class="fil3" d="M405.11 1015.29c-3.34,2.43 -7.51,3.65 -10.84,3.65l-3.34 0.61c-5,0 -10.01,-1.22 -14.18,-4.26 -3.33,-2.43 -6.67,-5.48 -9.17,-9.74l-6.67 6.09c-1.67,2.43 -4.17,3.65 -5,4.26l0 -13.39 0.83 -1.21 1.67 -1.83c-2.5,-1.22 -4.17,-1.83 -5.84,-1.22l-2.5 0c0,0 -0.83,0 -1.67,0 0.84,0 -0.83,0 -2.5,0l0 -1.82 0 -3.04c0,0 0,-0.61 0,-1.83 0,-0.61 0,-1.83 0.84,-2.43 0,-2.44 0.83,-3.65 0.83,-4.26 0.83,-0.61 2.5,-1.22 6.67,-1.83l5 -0.61 5.84 -0.61c5,0 8.34,0.61 10.84,1.22l3.34 1.22c0,0.61 0.83,0.61 1.67,1.82l0.84 2.44c0,0.61 -0.84,1.21 -0.84,2.43 0,1.22 -0.83,1.83 -0.83,2.44 0,0.61 -0.83,1.82 -1.67,2.43l-2.5 3.04c1.67,3.04 3.34,4.87 5,5.48 1.67,1.21 3.34,1.82 5.01,2.43l4.17 0c5.84,0 10.84,-1.82 15.01,-6.08l0 14.6z"/>
   <path class="fil3" d="M397.6 930.7c0,3.04 -0.83,5.48 -3.33,6.69l-30.86 12.78c0,-1.82 0,-3.65 0.84,-4.26 0.83,-1.21 3.33,-2.43 5.84,-3.65l27.52 -11.56zm0 10.95c0,3.04 -0.83,5.48 -3.33,6.09l-30.86 12.78c0,-1.83 0,-3.04 0.84,-4.26 0.83,-0.61 2.5,-1.83 5.84,-3.04l27.52 -11.56z"/>
   <path class="fil3" d="M355.91 1015.29c-4.17,2.43 -9.17,4.26 -15.01,4.26 -4.17,0 -8.34,-1.22 -12.51,-3.65 -2.5,-1.22 -5,-4.26 -8.34,-7.91 -1.67,-3.04 -4.17,-7.3 -6.67,-14l-19.18 -48.07 0 -4.26 0 -3.65c0,-1.21 0,-3.04 0.84,-4.87l0.83 0c0,0 0.83,0.61 0.83,1.21l2.5 8.52 3.33 8.52 8.34 20.08c4.17,9.74 7.5,16.43 10.84,21.3 5.84,9.73 13.34,13.99 20.85,13.99l1.67 0c0.84,0 3.34,-0.61 5.84,-1.22 2.5,-1.21 5,-2.43 5.84,-4.26l0 13.99z"/>
   <g style="clip-path:url(#id0)">
    <image x="621.67" y="0" width="213.22" height="147.65" xlink:href="AIMC Logo (1)_Images\AIMC Logo (1)_ImgID1.png"/>
   </g>
   <rect class="fil7 str5" x="613.14" y="2.79" width="7.01" height="441.75"/>
  </g>
 </g>
</svg>
